  0
SECTION
  2
HEADER
  9
$ACADVER
  1
AC1015
  9
$ACADMAINTVER
 70
     6
  9
$DWGCODEPAGE
  3
ANSI_1252
  9
$INSBASE
 10
0.0
 20
0.0
 30
0.0
  9
$EXTMIN
 10
-16.7573318528
 20
-47.2624340223
 30
0.0
  9
$EXTMAX
 10
16.7538094741
 20
47.5527091773
 30
0.0
  9
$LIMMIN
 10
0.0
 20
0.0
  9
$LIMMAX
 10
420.0
 20
297.0
  9
$ORTHOMODE
 70
     0
  9
$REGENMODE
 70
     1
  9
$FILLMODE
 70
     1
  9
$QTEXTMODE
 70
     0
  9
$MIRRTEXT
 70
     1
  9
$LTSCALE
 40
1.0
  9
$ATTMODE
 70
     1
  9
$TEXTSIZE
 40
3.175
  9
$TRACEWID
 40
1.0
  9
$TEXTSTYLE
  7
Standard
  9
$CLAYER
  8
0
  9
$CELTYPE
  6
ByLayer
  9
$CECOLOR
 62
   256
  9
$CELTSCALE
 40
1.0
  9
$DISPSILH
 70
     0
  9
$DIMSCALE
 40
1.0
  9
$DIMASZ
 40
3.302
  9
$DIMEXO
 40
1.27
  9
$DIMDLI
 40
3.75
  9
$DIMRND
 40
0.0
  9
$DIMDLE
 40
0.0
  9
$DIMEXE
 40
3.175
  9
$DIMTP
 40
0.0
  9
$DIMTM
 40
0.0
  9
$DIMTXT
 40
3.175
  9
$DIMCEN
 40
2.5
  9
$DIMTSZ
 40
0.0
  9
$DIMTOL
 70
     0
  9
$DIMLIM
 70
     0
  9
$DIMTIH
 70
     1
  9
$DIMTOH
 70
     1
  9
$DIMSE1
 70
     0
  9
$DIMSE2
 70
     0
  9
$DIMTAD
 70
     0
  9
$DIMZIN
 70
     0
  9
$DIMBLK
  1

  9
$DIMASO
 70
     1
  9
$DIMSHO
 70
     1
  9
$DIMPOST
  1

  9
$DIMAPOST
  1

  9
$DIMALT
 70
     0
  9
$DIMALTD
 70
     3
  9
$DIMALTF
 40
0.0393700787
  9
$DIMLFAC
 40
1.0
  9
$DIMTOFL
 70
     1
  9
$DIMTVP
 40
0.0
  9
$DIMTIX
 70
     0
  9
$DIMSOXD
 70
     0
  9
$DIMSAH
 70
     0
  9
$DIMBLK1
  1

  9
$DIMBLK2
  1

  9
$DIMSTYLE
  2
ISO-25
  9
$DIMCLRD
 70
     0
  9
$DIMCLRE
 70
     0
  9
$DIMCLRT
 70
     0
  9
$DIMTFAC
 40
1.0
  9
$DIMGAP
 40
1.524
  9
$DIMJUST
 70
     0
  9
$DIMSD1
 70
     0
  9
$DIMSD2
 70
     0
  9
$DIMTOLJ
 70
     0
  9
$DIMTZIN
 70
     0
  9
$DIMALTZ
 70
     0
  9
$DIMALTTZ
 70
     0
  9
$DIMUPT
 70
     0
  9
$DIMDEC
 70
     2
  9
$DIMTDEC
 70
     2
  9
$DIMALTU
 70
     2
  9
$DIMALTTD
 70
     3
  9
$DIMTXSTY
  7
Standard
  9
$DIMAUNIT
 70
     0
  9
$DIMADEC
 70
     2
  9
$DIMALTRND
 40
0.0
  9
$DIMAZIN
 70
     0
  9
$DIMDSEP
 70
    44
  9
$DIMATFIT
 70
     3
  9
$DIMFRAC
 70
     0
  9
$DIMLDRBLK
  1

  9
$DIMLUNIT
 70
     2
  9
$DIMLWD
 70
    -2
  9
$DIMLWE
 70
    -2
  9
$DIMTMOVE
 70
     0
  9
$LUNITS
 70
     2
  9
$LUPREC
 70
     2
  9
$SKETCHINC
 40
1.0
  9
$FILLETRAD
 40
10.0
  9
$AUNITS
 70
     0
  9
$AUPREC
 70
     2
  9
$MENU
  1
.
  9
$ELEVATION
 40
0.0
  9
$PELEVATION
 40
0.0
  9
$THICKNESS
 40
0.0
  9
$LIMCHECK
 70
     0
  9
$CHAMFERA
 40
0.0
  9
$CHAMFERB
 40
0.0
  9
$CHAMFERC
 40
0.0
  9
$CHAMFERD
 40
0.0
  9
$SKPOLY
 70
     0
  9
$TDCREATE
 40
2457881.852810208
  9
$TDUCREATE
 40
2457882.102810208
  9
$TDUPDATE
 40
2457881.852841852
  9
$TDUUPDATE
 40
2457882.102841852
  9
$TDINDWG
 40
0.0000000116
  9
$TDUSRTIMER
 40
0.0000000116
  9
$USRTIMER
 70
     1
  9
$ANGBASE
 50
0.0
  9
$ANGDIR
 70
     0
  9
$PDMODE
 70
     0
  9
$PDSIZE
 40
-1.0
  9
$PLINEWID
 40
0.0
  9
$SPLFRAME
 70
     0
  9
$SPLINETYPE
 70
     6
  9
$SPLINESEGS
 70
     8
  9
$HANDSEED
  5
331
  9
$SURFTAB1
 70
     6
  9
$SURFTAB2
 70
     6
  9
$SURFTYPE
 70
     6
  9
$SURFU
 70
     6
  9
$SURFV
 70
     6
  9
$UCSBASE
  2

  9
$UCSNAME
  2

  9
$UCSORG
 10
0.0
 20
0.0
 30
0.0
  9
$UCSXDIR
 10
1.0
 20
0.0
 30
0.0
  9
$UCSYDIR
 10
0.0
 20
1.0
 30
0.0
  9
$UCSORTHOREF
  2

  9
$UCSORTHOVIEW
 70
     0
  9
$UCSORGTOP
 10
0.0
 20
0.0
 30
0.0
  9
$UCSORGBOTTOM
 10
0.0
 20
0.0
 30
0.0
  9
$UCSORGLEFT
 10
0.0
 20
0.0
 30
0.0
  9
$UCSORGRIGHT
 10
0.0
 20
0.0
 30
0.0
  9
$UCSORGFRONT
 10
0.0
 20
0.0
 30
0.0
  9
$UCSORGBACK
 10
0.0
 20
0.0
 30
0.0
  9
$PUCSBASE
  2

  9
$PUCSNAME
  2

  9
$PUCSORG
 10
0.0
 20
0.0
 30
0.0
  9
$PUCSXDIR
 10
1.0
 20
0.0
 30
0.0
  9
$PUCSYDIR
 10
0.0
 20
1.0
 30
0.0
  9
$PUCSORTHOREF
  2

  9
$PUCSORTHOVIEW
 70
     0
  9
$PUCSORGTOP
 10
0.0
 20
0.0
 30
0.0
  9
$PUCSORGBOTTOM
 10
0.0
 20
0.0
 30
0.0
  9
$PUCSORGLEFT
 10
0.0
 20
0.0
 30
0.0
  9
$PUCSORGRIGHT
 10
0.0
 20
0.0
 30
0.0
  9
$PUCSORGFRONT
 10
0.0
 20
0.0
 30
0.0
  9
$PUCSORGBACK
 10
0.0
 20
0.0
 30
0.0
  9
$USERI1
 70
     0
  9
$USERI2
 70
     0
  9
$USERI3
 70
     0
  9
$USERI4
 70
     0
  9
$USERI5
 70
     0
  9
$USERR1
 40
0.0
  9
$USERR2
 40
0.0
  9
$USERR3
 40
0.0
  9
$USERR4
 40
0.0
  9
$USERR5
 40
0.0
  9
$WORLDVIEW
 70
     1
  9
$SHADEDGE
 70
     3
  9
$SHADEDIF
 70
    70
  9
$TILEMODE
 70
     1
  9
$MAXACTVP
 70
    64
  9
$PINSBASE
 10
0.0
 20
0.0
 30
0.0
  9
$PLIMCHECK
 70
     0
  9
$PEXTMIN
 10
1.0000000000E+20
 20
1.0000000000E+20
 30
1.0000000000E+20
  9
$PEXTMAX
 10
-1.0000000000E+20
 20
-1.0000000000E+20
 30
-1.0000000000E+20
  9
$PLIMMIN
 10
0.0
 20
0.0
  9
$PLIMMAX
 10
420.0
 20
297.0
  9
$UNITMODE
 70
     0
  9
$VISRETAIN
 70
     1
  9
$PLINEGEN
 70
     0
  9
$PSLTSCALE
 70
     1
  9
$TREEDEPTH
 70
  3020
  9
$CMLSTYLE
  2
Standard
  9
$CMLJUST
 70
     0
  9
$CMLSCALE
 40
20.0
  9
$PROXYGRAPHICS
 70
     1
  9
$MEASUREMENT
 70
     1
  9
$CELWEIGHT
370
    -1
  9
$ENDCAPS
280
     0
  9
$JOINSTYLE
280
     0
  9
$LWDISPLAY
290
     1
  9
$INSUNITS
 70
     4
  9
$HYPERLINKBASE
  1

  9
$STYLESHEET
  1

  9
$XEDIT
290
     1
  9
$CEPSNTYPE
380
     0
  9
$PSTYLEMODE
290
     1
  9
$FINGERPRINTGUID
  2
{BC3BD519-4BF9-464D-855C-70BD38EA64B6}
  9
$VERSIONGUID
  2
{FAEB1C32-E019-11D5-929B-00C0DF256EC4}
  9
$EXTNAMES
290
     1
  9
$PSVPSCALE
 40
0.0
  9
$OLESTARTUP
290
     0
  0
ENDSEC
  0
SECTION
  2
CLASSES
  0
CLASS
  1
ACDBDICTIONARYWDFLT
  2
AcDbDictionaryWithDefault
  3
ObjectDBX Classes
 90
        0
280
     0
281
     0
  0
CLASS
  1
VISUALSTYLE
  2
AcDbVisualStyle
  3
ObjectDBX Classes
 90
     4095
280
     0
281
     0
  0
CLASS
  1
MATERIAL
  2
AcDbMaterial
  3
ObjectDBX Classes
 90
     1153
280
     0
281
     0
  0
CLASS
  1
SCALE
  2
AcDbScale
  3
ObjectDBX Classes
 90
     1153
280
     0
281
     0
  0
CLASS
  1
TABLESTYLE
  2
AcDbTableStyle
  3
ObjectDBX Classes
 90
     4095
280
     0
281
     0
  0
CLASS
  1
MLEADERSTYLE
  2
AcDbMLeaderStyle
  3
ACDB_MLEADERSTYLE_CLASS
 90
     4095
280
     0
281
     0
  0
CLASS
  1
SUN
  2
AcDbSun
  3
SCENEOE
 90
     1153
280
     0
281
     0
  0
CLASS
  1
ACDBPLACEHOLDER
  2
AcDbPlaceHolder
  3
ObjectDBX Classes
 90
        0
280
     0
281
     0
  0
CLASS
  1
LAYOUT
  2
AcDbLayout
  3
ObjectDBX Classes
 90
        0
280
     0
281
     0
  0
ENDSEC
  0
SECTION
  2
TABLES
  0
TABLE
  2
VPORT
  5
8
330
0
100
AcDbSymbolTable
 70
     1
  0
VPORT
  5
29
330
8
100
AcDbSymbolTableRecord
100
AcDbViewportTableRecord
  2
*Active
 70
     0
 10
0.0
 20
0.0
 11
1.0
 21
1.0
 12
-0.0017611894
 22
0.1451375775
 13
0.0
 23
0.0
 14
10.0
 24
10.0
 15
10.0
 25
10.0
 16
0.0
 26
0.0
 36
1.0
 17
0.0
 27
0.0
 37
0.0
 40
96.7114460636
 41
0.3534365946
 42
50.0
 43
0.0
 44
0.0
 50
0.0
 51
0.0
 71
     0
 72
   100
 73
     1
 74
     3
 75
     0
 76
     0
 77
     0
 78
     0
281
     0
 65
     1
110
0.0
120
0.0
130
0.0
111
1.0
121
0.0
131
0.0
112
0.0
122
1.0
132
0.0
 79
     0
146
0.0
  0
ENDTAB
  0
TABLE
  2
LTYPE
  5
5
330
0
100
AcDbSymbolTable
 70
     6
  0
LTYPE
  5
14
330
5
100
AcDbSymbolTableRecord
100
AcDbLinetypeTableRecord
  2
ByBlock
 70
     0
  3

 72
    65
 73
     0
 40
0.0
  0
LTYPE
  5
15
330
5
100
AcDbSymbolTableRecord
100
AcDbLinetypeTableRecord
  2
ByLayer
 70
     0
  3

 72
    65
 73
     0
 40
0.0
  0
LTYPE
  5
16
330
5
100
AcDbSymbolTableRecord
100
AcDbLinetypeTableRecord
  2
Continuous
 70
     0
  3
Solid line
 72
    65
 73
     0
 40
0.0
  0
LTYPE
  5
6E
330
5
100
AcDbSymbolTableRecord
100
AcDbLinetypeTableRecord
  2
HIDDEN
 70
     0
  3
Hidden __ __ __ __ __ __ __ __ __ __ __ __ __ __
 72
    65
 73
     2
 40
1.905
 49
1.27
 74
     0
 49
-0.635
 74
     0
  0
LTYPE
  5
6F
330
5
100
AcDbSymbolTableRecord
100
AcDbLinetypeTableRecord
  2
PHANTOM
 70
     0
  3
Phantom ______  __  __  ______  __  __  ______
 72
    65
 73
     6
 40
12.7
 49
6.35
 74
     0
 49
-1.27
 74
     0
 49
1.27
 74
     0
 49
-1.27
 74
     0
 49
1.27
 74
     0
 49
-1.27
 74
     0
  0
LTYPE
  5
70
330
5
100
AcDbSymbolTableRecord
100
AcDbLinetypeTableRecord
  2
CENTER
 70
     0
  3
Center ____ _ ____ _ ____ _ ____ _ ____ _ ____
 72
    65
 73
     4
 40
10.16
 49
6.35
 74
     0
 49
-1.27
 74
     0
 49
1.27
 74
     0
 49
-1.27
 74
     0
  0
LTYPE
  5
71
330
5
100
AcDbSymbolTableRecord
100
AcDbLinetypeTableRecord
  2
CENTERX2
 70
     0
  3
Center (2x) ________  __  ________  __  _____
 72
    65
 73
     4
 40
20.32
 49
12.7
 74
     0
 49
-2.54
 74
     0
 49
2.54
 74
     0
 49
-2.54
 74
     0
  0
LTYPE
  5
72
330
5
100
AcDbSymbolTableRecord
100
AcDbLinetypeTableRecord
  2
DOT2
 70
     0
  3
Dot (.5x) ........................................
 72
    65
 73
     2
 40
0.635
 49
0.0
 74
     0
 49
-0.635
 74
     0
  0
ENDTAB
  0
TABLE
  2
LAYER
  5
2
330
0
100
AcDbSymbolTable
 70
     1
  0
LAYER
  5
10
330
2
100
AcDbSymbolTableRecord
100
AcDbLayerTableRecord
  2
0
 70
     0
 62
     7
  6
Continuous
370
    -3
390
F
  0
ENDTAB
  0
TABLE
  2
STYLE
  5
3
330
0
100
AcDbSymbolTable
 70
     1
  0
STYLE
  5
11
330
3
100
AcDbSymbolTableRecord
100
AcDbTextStyleTableRecord
  2
Standard
 70
     0
 40
0.0
 41
1.0
 50
0.0
 71
     0
 42
3.175
  3
txt
  4

  0
ENDTAB
  0
TABLE
  2
VIEW
  5
6
330
0
100
AcDbSymbolTable
 70
     0
  0
ENDTAB
  0
TABLE
  2
UCS
  5
7
330
0
100
AcDbSymbolTable
 70
     0
  0
ENDTAB
  0
TABLE
  2
APPID
  5
9
330
0
100
AcDbSymbolTable
 70
     1
  0
APPID
  5
12
330
9
100
AcDbSymbolTableRecord
100
AcDbRegAppTableRecord
  2
ACAD
 70
     0
  0
ENDTAB
  0
TABLE
  2
DIMSTYLE
  5
A
330
0
100
AcDbSymbolTable
 70
     1
100
AcDbDimStyleTable
  0
DIMSTYLE
105
27
330
A
100
AcDbSymbolTableRecord
100
AcDbDimStyleTableRecord
  2
ISO-25
 70
     0
 41
2.5
 42
0.625
 43
3.75
 44
1.25
 73
     0
 74
     0
 77
     1
 78
     8
140
2.5
141
2.5
143
0.0393700787
147
0.625
171
     3
172
     1
178
     0
271
     2
272
     2
274
     3
278
    44
283
     0
284
     8
340
11
  0
ENDTAB
  0
TABLE
  2
BLOCK_RECORD
  5
1
330
0
100
AcDbSymbolTable
 70
     1
  0
BLOCK_RECORD
  5
1F
330
1
100
AcDbSymbolTableRecord
100
AcDbBlockTableRecord
  2
*Model_Space
340
22
  0
BLOCK_RECORD
  5
1B
330
1
100
AcDbSymbolTableRecord
100
AcDbBlockTableRecord
  2
*Paper_Space
340
1E
  0
BLOCK_RECORD
  5
23
330
1
100
AcDbSymbolTableRecord
100
AcDbBlockTableRecord
  2
*Paper_Space0
340
26
  0
ENDTAB
  0
ENDSEC
  0
SECTION
  2
BLOCKS
  0
BLOCK
  5
20
330
1F
100
AcDbEntity
  8
0
100
AcDbBlockBegin
  2
*Model_Space
 70
     0
 10
0.0
 20
0.0
 30
0.0
  3
*Model_Space
  1

  0
ENDBLK
  5
21
330
1F
100
AcDbEntity
  8
0
100
AcDbBlockEnd
  0
BLOCK
  5
1C
330
1B
100
AcDbEntity
 67
     1
  8
0
100
AcDbBlockBegin
  2
*Paper_Space
 70
     0
 10
0.0
 20
0.0
 30
0.0
  3
*Paper_Space
  1

  0
ENDBLK
  5
1D
330
1B
100
AcDbEntity
 67
     1
  8
0
100
AcDbBlockEnd
  0
BLOCK
  5
24
330
23
100
AcDbEntity
  8
0
100
AcDbBlockBegin
  2
*Paper_Space0
 70
     0
 10
0.0
 20
0.0
 30
0.0
  3
*Paper_Space0
  1

  0
ENDBLK
  5
25
330
23
100
AcDbEntity
  8
0
100
AcDbBlockEnd
  0
ENDSEC
  0
SECTION
  2
ENTITIES
  0
CIRCLE
  5
D0
330
1F
100
AcDbEntity
  8
0
  6
Continuous
 62
     7
370
    15
100
AcDbCircle
 10
13.5105313589
 20
-36.6748671626
 30
0.0
 40
1.599736531455494
  0
CIRCLE
  5
D1
330
1F
100
AcDbEntity
  8
0
  6
Continuous
 62
     7
370
    15
100
AcDbCircle
 10
10.0146065329
 20
43.6220017219
 30
0.0
 40
1.599736531455491
  0
CIRCLE
  5
F6
330
1F
100
AcDbEntity
  8
0
  6
Continuous
 62
     7
370
    15
100
AcDbCircle
 10
-9.9836171459
 20
43.6173150444
 30
0.0
 40
1.599736531455487
  0
CIRCLE
  5
F7
330
1F
100
AcDbEntity
  8
0
  6
Continuous
 62
     7
370
    15
100
AcDbCircle
 10
-13.4870706074
 20
-36.6811941772
 30
0.0
 40
1.599736531455493
  0
CIRCLE
  5
F8
330
1F
100
AcDbEntity
  8
0
  6
Continuous
 62
     7
370
    15
100
AcDbCircle
 10
0.0147846268
 20
28.4730307202
 30
0.0
 40
1.599736531455493
  0
CIRCLE
  5
F9
330
1F
100
AcDbEntity
  8
0
  6
Continuous
 62
     7
370
    15
100
AcDbCircle
 10
0.0151009931
 20
35.2215281938
 30
0.0
 40
1.599736531455491
  0
LINE
  5
1D5
330
1F
100
AcDbEntity
  8
0
  6
Continuous
 62
     7
370
    15
100
AcDbLine
 10
-6.4674336511
 20
46.8079561617
 30
0.0
 11
-6.4940886348
 21
46.8501504055
 31
0.0
  0
LINE
  5
1D6
330
1F
100
AcDbEntity
  8
0
  6
Continuous
 62
     7
370
    15
100
AcDbLine
 10
12.9284530574
 20
45.5545803914
 30
0.0
 11
12.9017980737
 21
45.5967746352
 31
0.0
  0
LINE
  5
1D7
330
1F
100
AcDbEntity
  8
0
  6
Continuous
 62
     7
370
    15
100
AcDbLine
 10
-14.5525403059
 20
14.344562362
 30
0.0
 11
-14.5258853223
 21
14.3023681182
 31
0.0
  0
LINE
  5
1D8
330
1F
100
AcDbEntity
  8
0
  6
Continuous
 62
     7
370
    15
100
AcDbLine
 10
15.7384363814
 20
-14.5798569429
 30
0.0
 11
15.7117813977
 21
-14.5376626991
 31
0.0
  0
LINE
  5
1D9
330
1F
100
AcDbEntity
  8
0
  6
Continuous
 62
     7
370
    15
100
AcDbLine
 10
-16.1085280181
 20
-39.1589071447
 30
0.0
 11
-16.0818730344
 21
-39.2011013884
 31
0.0
  0
LINE
  5
1DA
330
1F
100
AcDbEntity
  8
0
  6
Continuous
 62
     7
370
    15
100
AcDbLine
 10
8.5105178352
 20
-43.8489007624
 30
0.0
 11
8.5105975126
 21
-42.1492791764
 31
0.0
  0
LINE
  5
1DB
330
1F
100
AcDbEntity
  8
0
  6
Continuous
 62
     7
370
    15
100
AcDbLine
 10
7.7606992765
 20
-41.3996218742
 30
0.0
 11
7.2607436845
 21
-41.3997390412
 31
0.0
  0
LINE
  5
1DC
330
1F
100
AcDbEntity
  8
0
  6
Continuous
 62
     7
370
    15
100
AcDbLine
 10
6.5107751448
 20
-42.1497478442
 30
0.0
 11
6.5106954673
 21
-43.8493694301
 31
0.0
  0
LINE
  5
1DD
330
1F
100
AcDbEntity
  8
0
  6
Continuous
 62
     7
370
    15
100
AcDbLine
 10
7.2605937034
 20
-44.5990267323
 30
0.0
 11
7.7605492954
 21
-44.5989095654
 31
0.0
  0
LINE
  5
1DE
330
1F
100
AcDbEntity
  8
0
  6
Continuous
 62
     7
370
    15
100
AcDbLine
 10
10.0216878015
 20
-26.2502264352
 30
0.0
 11
10.5216433934
 21
-26.2501092683
 31
0.0
  0
LINE
  5
1DF
330
1F
100
AcDbEntity
  8
0
  6
Continuous
 62
     7
370
    15
100
AcDbLine
 10
11.2716119332
 20
-25.5001004653
 30
0.0
 11
11.2716916107
 21
-23.8004788793
 31
0.0
  0
LINE
  5
1E0
330
1F
100
AcDbEntity
  8
0
  6
Continuous
 62
     7
370
    15
100
AcDbLine
 10
10.5217933745
 20
-23.0508215771
 30
0.0
 11
10.0218377826
 21
-23.0509387441
 31
0.0
  0
LINE
  5
1E1
330
1F
100
AcDbEntity
  8
0
  6
Continuous
 62
     7
370
    15
100
AcDbLine
 10
9.2718692428
 20
-23.8009475471
 30
0.0
 11
9.2717895653
 21
-25.500569133
 31
0.0
  0
LINE
  5
1E2
330
1F
100
AcDbEntity
  8
0
  6
Continuous
 62
     7
370
    15
100
AcDbLine
 10
-0.9885587348
 20
-42.1515053482
 30
0.0
 11
-0.9886384122
 21
-43.8511269342
 31
0.0
  0
LINE
  5
1E3
330
1F
100
AcDbEntity
  8
0
  6
Continuous
 62
     7
370
    15
100
AcDbLine
 10
-0.2387401761
 20
-44.6007842364
 30
0.0
 11
0.2612154159
 21
-44.6006670694
 31
0.0
  0
LINE
  5
1E4
330
1F
100
AcDbEntity
  8
0
  6
Continuous
 62
     7
370
    15
100
AcDbLine
 10
1.0111839556
 20
-43.8506582664
 30
0.0
 11
1.0112636331
 21
-42.1510366805
 31
0.0
  0
LINE
  5
1E5
330
1F
100
AcDbEntity
  8
0
  6
Continuous
 62
     7
370
    15
100
AcDbLine
 10
0.261365397
 20
-41.4013793783
 30
0.0
 11
-0.238590195
 21
-41.4014965452
 31
0.0
  0
LINE
  5
1E6
330
1F
100
AcDbEntity
  8
0
  6
Continuous
 62
     7
370
    15
100
AcDbLine
 10
-6.4881499239
 20
-43.8524157705
 30
0.0
 11
-6.4880702464
 21
-42.1527941845
 31
0.0
  0
LINE
  5
1E7
330
1F
100
AcDbEntity
  8
0
  6
Continuous
 62
     7
370
    15
100
AcDbLine
 10
-7.2379684826
 20
-41.4031368823
 30
0.0
 11
-7.7379240745
 21
-41.4032540492
 31
0.0
  0
LINE
  5
1E8
330
1F
100
AcDbEntity
  8
0
  6
Continuous
 62
     7
370
    15
100
AcDbLine
 10
-8.4878926143
 20
-42.1532628523
 30
0.0
 11
-8.4879722918
 21
-43.8528844382
 31
0.0
  0
LINE
  5
1E9
330
1F
100
AcDbEntity
  8
0
  6
Continuous
 62
     7
370
    15
100
AcDbLine
 10
-7.7380740556
 20
-44.6025417404
 30
0.0
 11
-7.2381184637
 21
-44.6024245735
 31
0.0
  0
LINE
  5
1EA
330
1F
100
AcDbEntity
  8
0
  6
Continuous
 62
     7
370
    15
100
AcDbLine
 10
-9.9973422751
 20
-23.0556303327
 30
0.0
 11
-10.497297867
 21
-23.0557474997
 31
0.0
  0
LINE
  5
1EB
330
1F
100
AcDbEntity
  8
0
  6
Continuous
 62
     7
370
    15
100
AcDbLine
 10
-11.2472664068
 20
-23.8057563027
 30
0.0
 11
-11.2473460843
 21
-25.5053778886
 31
0.0
  0
LINE
  5
1EC
330
1F
100
AcDbEntity
  8
0
  6
Continuous
 62
     7
370
    15
100
AcDbLine
 10
-10.4974478481
 20
-26.2550351908
 30
0.0
 11
-9.9974922562
 21
-26.2549180239
 31
0.0
  0
LINE
  5
1ED
330
1F
100
AcDbEntity
  8
0
  6
Continuous
 62
     7
370
    15
100
AcDbLine
 10
-9.2475237164
 20
-25.5049092209
 30
0.0
 11
-9.2474440389
 21
-23.8052876349
 31
0.0
  0
LINE
  5
1EE
330
1F
100
AcDbEntity
  8
0
  6
Continuous
 62
     7
370
    15
100
AcDbLine
 10
-3.5178798895
 20
-32.4647010638
 30
0.0
 11
-4.0178354815
 21
-32.4648182307
 31
0.0
  0
LINE
  5
1EF
330
1F
100
AcDbEntity
  8
0
  6
Continuous
 62
     7
370
    15
100
AcDbLine
 10
-4.7678040213
 20
-33.2148270338
 30
0.0
 11
-4.7678836987
 21
-34.9144486197
 31
0.0
  0
LINE
  5
1F0
330
1F
100
AcDbEntity
  8
0
  6
Continuous
 62
     7
370
    15
100
AcDbLine
 10
-4.0179854626
 20
-35.6641059219
 30
0.0
 11
-3.5180298706
 21
-35.663988755
 31
0.0
  0
LINE
  5
1F1
330
1F
100
AcDbEntity
  8
0
  6
Continuous
 62
     7
370
    15
100
AcDbLine
 10
-2.7680613309
 20
-34.913979952
 30
0.0
 11
-2.7679816534
 21
-33.214358366
 31
0.0
  0
LINE
  5
1F2
330
1F
100
AcDbEntity
  8
0
  6
Continuous
 62
     7
370
    15
100
AcDbLine
 10
4.7912672197
 20
-34.9122083879
 30
0.0
 11
4.7913468972
 21
-33.212586802
 31
0.0
  0
LINE
  5
1F3
330
1F
100
AcDbEntity
  8
0
  6
Continuous
 62
     7
370
    15
100
AcDbLine
 10
4.041448661
 20
-32.4629294997
 30
0.0
 11
3.5414930691
 21
-32.4630466667
 31
0.0
  0
LINE
  5
1F4
330
1F
100
AcDbEntity
  8
0
  6
Continuous
 62
     7
370
    15
100
AcDbLine
 10
2.7915245293
 20
-33.2130554697
 30
0.0
 11
2.7914448518
 21
-34.9126770556
 31
0.0
  0
LINE
  5
1F5
330
1F
100
AcDbEntity
  8
0
  6
Continuous
 62
     7
370
    15
100
AcDbLine
 10
3.541343088
 20
-35.6623343579
 30
0.0
 11
4.0412986799
 21
-35.6622171909
 31
0.0
  0
LINE
  5
1F6
330
1F
100
AcDbEntity
  8
0
  6
Continuous
 62
     7
370
    15
100
AcDbLine
 10
-9.9842517282
 20
32.6692806336
 30
0.0
 11
-9.9841720507
 21
34.3689022196
 31
0.0
  0
LINE
  5
1F7
330
1F
100
AcDbEntity
  8
0
  6
Continuous
 62
     7
370
    15
100
AcDbLine
 10
-10.7340702869
 20
35.1185595218
 30
0.0
 11
-11.2340258788
 21
35.1184423549
 31
0.0
  0
LINE
  5
1F8
330
1F
100
AcDbEntity
  8
0
  6
Continuous
 62
     7
370
    15
100
AcDbLine
 10
-11.9839944186
 20
34.3684335518
 30
0.0
 11
-11.9840740961
 21
32.6688119659
 31
0.0
  0
LINE
  5
1F9
330
1F
100
AcDbEntity
  8
0
  6
Continuous
 62
     7
370
    15
100
AcDbLine
 10
-11.2341758599
 20
31.9191546637
 30
0.0
 11
-10.734220268
 21
31.9192718306
 31
0.0
  0
LINE
  5
1FA
330
1F
100
AcDbEntity
  8
0
  6
Continuous
 62
     7
370
    15
100
AcDbLine
 10
-9.9848000966
 20
20.9718850128
 30
0.0
 11
-9.9847204191
 21
22.6715065987
 31
0.0
  0
LINE
  5
1FB
330
1F
100
AcDbEntity
  8
0
  6
Continuous
 62
     7
370
    15
100
AcDbLine
 10
-10.7346186553
 20
23.4211639009
 30
0.0
 11
-11.2345742472
 21
23.421046734
 31
0.0
  0
LINE
  5
1FC
330
1F
100
AcDbEntity
  8
0
  6
Continuous
 62
     7
370
    15
100
AcDbLine
 10
-11.984542787
 20
22.671037931
 30
0.0
 11
-11.9846224645
 21
20.971416345
 31
0.0
  0
LINE
  5
1FD
330
1F
100
AcDbEntity
  8
0
  6
Continuous
 62
     7
370
    15
100
AcDbLine
 10
-11.2347242283
 20
20.2217590428
 30
0.0
 11
-10.7347686364
 21
20.2218762097
 31
0.0
  0
LINE
  5
1FE
330
1F
100
AcDbEntity
  8
0
  6
Continuous
 62
     7
370
    15
100
AcDbLine
 10
10.7633218183
 20
20.226914388
 30
0.0
 11
11.2632774103
 21
20.2270315549
 31
0.0
  0
LINE
  5
1FF
330
1F
100
AcDbEntity
  8
0
  6
Continuous
 62
     7
370
    15
100
AcDbLine
 10
12.01324595
 20
20.9770403579
 30
0.0
 11
12.0133256275
 21
22.6766619439
 31
0.0
  0
LINE
  5
200
330
1F
100
AcDbEntity
  8
0
  6
Continuous
 62
     7
370
    15
100
AcDbLine
 10
11.2634273914
 20
23.4263192461
 30
0.0
 11
10.7634717994
 21
23.4262020792
 31
0.0
  0
LINE
  5
201
330
1F
100
AcDbEntity
  8
0
  6
Continuous
 62
     7
370
    15
100
AcDbLine
 10
10.0135032596
 20
22.6761932761
 30
0.0
 11
10.0134235822
 21
20.9765716902
 31
0.0
  0
LINE
  5
202
330
1F
100
AcDbEntity
  8
0
  6
Continuous
 62
     7
370
    15
100
AcDbLine
 10
12.0137943184
 20
32.6744359788
 30
0.0
 11
12.0138739959
 21
34.3740575648
 31
0.0
  0
LINE
  5
203
330
1F
100
AcDbEntity
  8
0
  6
Continuous
 62
     7
370
    15
100
AcDbLine
 10
11.2639757598
 20
35.123714867
 30
0.0
 11
10.7640201678
 21
35.1235977
 31
0.0
  0
LINE
  5
204
330
1F
100
AcDbEntity
  8
0
  6
Continuous
 62
     7
370
    15
100
AcDbLine
 10
10.014051628
 20
34.373588897
 30
0.0
 11
10.0139719506
 21
32.6739673111
 31
0.0
  0
LINE
  5
205
330
1F
100
AcDbEntity
  8
0
  6
Continuous
 62
     7
370
    15
100
AcDbLine
 10
10.7638701867
 20
31.9243100089
 30
0.0
 11
11.2638257787
 21
31.9244271758
 31
0.0
  0
LINE
  5
206
330
1F
100
AcDbEntity
  8
0
  6
Continuous
 62
     7
370
    15
100
AcDbLine
 10
-15.8778393036
 20
-39.4954699018
 30
0.0
 11
-11.2482881514
 21
-45.6008680132
 31
0.0
  0
LINE
  5
207
330
1F
100
AcDbEntity
  8
0
  6
Continuous
 62
     7
370
    15
100
AcDbLine
 10
-15.8668890503
 20
-15.081602615
 30
0.0
 11
-16.7273804231
 21
-36.7928784901
 31
0.0
  0
LINE
  5
208
330
1F
100
AcDbEntity
  8
0
  6
Continuous
 62
     7
370
    15
100
AcDbLine
 10
-14.1960520108
 20
-14.1209754575
 30
0.0
 11
-14.8677152129
 21
-14.1211328649
 31
0.0
  0
LINE
  5
209
330
1F
100
AcDbEntity
  8
0
  6
Continuous
 62
     7
370
    15
100
AcDbLine
 10
-11.5738519957
 20
12.4734047747
 30
0.0
 11
-12.5644752744
 21
-12.5212621953
 31
0.0
  0
LINE
  5
20A
330
1F
100
AcDbEntity
  8
0
  6
Continuous
 62
     7
370
    15
100
AcDbLine
 10
-13.6804974584
 20
13.8366694658
 30
0.0
 11
-12.3374578675
 21
13.8369842134
 31
0.0
  0
LINE
  5
20B
330
1F
100
AcDbEntity
  8
0
  6
Continuous
 62
     7
370
    15
100
AcDbLine
 10
-13.5462054684
 20
43.4721529037
 30
0.0
 11
-14.6795775577
 21
14.8757545226
 31
0.0
  0
LINE
  5
20C
330
1F
100
AcDbEntity
  8
0
  6
Continuous
 62
     7
370
    15
100
AcDbLine
 10
-7.7355154469
 20
47.5065041404
 30
0.0
 11
-9.3496753512
 21
47.5061258544
 31
0.0
  0
LINE
  5
20D
330
1F
100
AcDbEntity
  8
0
  6
Continuous
 62
     7
370
    15
100
AcDbLine
 10
-6.2359786294
 20
40.4684227206
 30
0.0
 11
-6.2357189746
 21
46.0071895359
 31
0.0
  0
LINE
  5
20E
330
1F
100
AcDbEntity
  8
0
  6
Continuous
 62
     7
370
    15
100
AcDbLine
 10
4.7647335102
 20
38.9713347003
 30
0.0
 11
-4.7361821571
 21
38.9691081161
 31
0.0
  0
LINE
  5
20F
330
1F
100
AcDbEntity
  8
0
  6
Continuous
 62
     7
370
    15
100
AcDbLine
 10
6.2649302445
 20
46.0101191217
 30
0.0
 11
6.2646705897
 21
40.4713523063
 31
0.0
  0
LINE
  5
210
330
1F
100
AcDbEntity
  8
0
  6
Continuous
 62
     7
370
    15
100
AcDbLine
 10
9.3778240292
 20
47.5105147317
 30
0.0
 11
7.764867324
 21
47.5101367277
 31
0.0
  0
LINE
  5
211
330
1F
100
AcDbEntity
  8
0
  6
Continuous
 62
     7
370
    15
100
AcDbLine
 10
14.708156748
 20
14.8206425947
 30
0.0
 11
13.5739700137
 21
43.478660407
 31
0.0
  0
LINE
  5
212
330
1F
100
AcDbEntity
  8
0
  6
Continuous
 62
     7
370
    15
100
AcDbLine
 10
12.3654124432
 20
13.8427734468
 30
0.0
 11
13.7084520341
 21
13.8430881944
 31
0.0
  0
LINE
  5
213
330
1F
100
AcDbEntity
  8
0
  6
Continuous
 62
     7
370
    15
100
AcDbLine
 10
12.5899585307
 20
-12.5153671358
 30
0.0
 11
11.6016787067
 21
12.4788360689
 31
0.0
  0
LINE
  5
214
330
1F
100
AcDbEntity
  8
0
  6
Continuous
 62
     7
370
    15
100
AcDbLine
 10
14.8930485175
 20
-14.1141582904
 30
0.0
 11
14.2213853154
 21
-14.1143156978
 31
0.0
  0
LINE
  5
215
330
1F
100
AcDbEntity
  8
0
  6
Continuous
 62
     7
370
    15
100
AcDbLine
 10
16.7505303043
 20
-36.7849493113
 30
0.0
 11
15.8896704135
 21
-15.0332065537
 31
0.0
  0
LINE
  5
216
330
1F
100
AcDbEntity
  8
0
  6
Continuous
 62
     7
370
    15
100
AcDbLine
 10
11.2706698661
 20
-45.5955905899
 30
0.0
 11
15.9007417771
 21
-39.4880907321
 31
0.0
  0
LINE
  5
217
330
1F
100
AcDbEntity
  8
0
  6
Continuous
 62
     7
370
    15
100
AcDbLine
 10
-7.901692854
 20
-47.2624338401
 30
0.0
 11
7.9239187084
 21
-47.2587250338
 31
0.0
  0
LINE
  5
218
330
1F
100
AcDbEntity
  8
0
  6
Continuous
 62
     7
370
    15
100
AcDbLine
 10
-0.8363392345
 20
5.4774794135
 30
0.0
 11
0.8635097782
 21
5.4778777811
 31
0.0
  0
LINE
  5
219
330
1F
100
AcDbEntity
  8
0
  6
Continuous
 62
     7
370
    15
100
AcDbLine
 10
1.613478318
 20
6.2278865842
 30
0.0
 11
1.6135017525
 21
6.7277752859
 31
0.0
  0
LINE
  5
21A
330
1F
100
AcDbEntity
  8
0
  6
Continuous
 62
     7
370
    15
100
AcDbLine
 10
0.8636035164
 20
7.4774325881
 30
0.0
 11
-0.8362454963
 21
7.4770342205
 31
0.0
  0
LINE
  5
21B
330
1F
100
AcDbEntity
  8
0
  6
Continuous
 62
     7
370
    15
100
AcDbLine
 10
-1.5862140361
 20
6.7270254175
 30
0.0
 11
-1.5862374706
 21
6.2271367158
 31
0.0
  0
LINE
  5
21C
330
1F
100
AcDbEntity
  8
0
  6
Continuous
 62
     7
370
    15
100
AcDbLine
 10
-0.8358939781
 20
14.9753647467
 30
0.0
 11
0.8639550346
 21
14.9757631143
 31
0.0
  0
LINE
  5
21D
330
1F
100
AcDbEntity
  8
0
  6
Continuous
 62
     7
370
    15
100
AcDbLine
 10
1.6139235744
 20
15.7257719173
 30
0.0
 11
1.6139470089
 21
16.2256606191
 31
0.0
  0
LINE
  5
21E
330
1F
100
AcDbEntity
  8
0
  6
Continuous
 62
     7
370
    15
100
AcDbLine
 10
0.8640487728
 20
16.9753179213
 30
0.0
 11
-0.8358002399
 21
16.9749195537
 31
0.0
  0
LINE
  5
21F
330
1F
100
AcDbEntity
  8
0
  6
Continuous
 62
     7
370
    15
100
AcDbLine
 10
-1.5857687797
 20
16.2249107507
 30
0.0
 11
-1.5857922142
 21
15.7250220489
 31
0.0
  0
LINE
  5
220
330
1F
100
AcDbEntity
  8
0
  6
Continuous
 62
     7
370
    15
100
AcDbLine
 10
-0.8373937891
 20
-17.0175121651
 30
0.0
 11
0.8624552236
 21
-17.0171137975
 31
0.0
  0
LINE
  5
221
330
1F
100
AcDbEntity
  8
0
  6
Continuous
 62
     7
370
    15
100
AcDbLine
 10
1.6124237634
 20
-16.2671049945
 30
0.0
 11
1.6124471979
 21
-15.7672162927
 31
0.0
  0
LINE
  5
222
330
1F
100
AcDbEntity
  8
0
  6
Continuous
 62
     7
370
    15
100
AcDbLine
 10
0.8625489618
 20
-15.0175589905
 30
0.0
 11
-0.8373000509
 21
-15.0179573581
 31
0.0
  0
LINE
  5
223
330
1F
100
AcDbEntity
  8
0
  6
Continuous
 62
     7
370
    15
100
AcDbLine
 10
-1.5872685907
 20
-15.7679661611
 30
0.0
 11
-1.5872920252
 21
-16.2678548628
 31
0.0
  0
LINE
  5
224
330
1F
100
AcDbEntity
  8
0
  6
Continuous
 62
     7
370
    15
100
AcDbLine
 10
-0.8369485327
 20
-7.5196268319
 30
0.0
 11
0.86290048
 21
-7.5192284643
 31
0.0
  0
LINE
  5
225
330
1F
100
AcDbEntity
  8
0
  6
Continuous
 62
     7
370
    15
100
AcDbLine
 10
1.6128690198
 20
-6.7692196613
 30
0.0
 11
1.6128924543
 21
-6.2693309595
 31
0.0
  0
LINE
  5
226
330
1F
100
AcDbEntity
  8
0
  6
Continuous
 62
     7
370
    15
100
AcDbLine
 10
0.8629942182
 20
-5.5196736573
 30
0.0
 11
-0.8368547945
 21
-5.5200720249
 31
0.0
  0
LINE
  5
227
330
1F
100
AcDbEntity
  8
0
  6
Continuous
 62
     7
370
    15
100
AcDbLine
 10
-1.5868233343
 20
-6.2700808279
 30
0.0
 11
-1.5868467688
 21
-6.7699695297
 31
0.0
  0
LINE
  5
228
330
1F
100
AcDbEntity
  8
0
  6
Continuous
 62
     7
370
    15
100
AcDbLine
 10
-9.3496753512
 20
47.5061258544
 30
0.0
 11
-9.3763303348
 21
47.5483200982
 31
0.0
  0
LINE
  5
229
330
1F
100
AcDbEntity
  8
0
  6
Continuous
 62
     7
370
    15
100
AcDbLine
 10
-13.5462054684
 20
43.4721529037
 30
0.0
 11
-13.5728604521
 21
43.5143471474
 31
0.0
  0
LINE
  5
22A
330
1F
100
AcDbEntity
  8
0
  6
Continuous
 62
     7
370
    15
100
AcDbLine
 10
-7.7355154469
 20
47.5065041404
 30
0.0
 11
-7.7621704306
 21
47.5486983841
 31
0.0
  0
LINE
  5
22B
330
1F
100
AcDbEntity
  8
0
  6
Continuous
 62
     7
370
    15
100
AcDbLine
 10
-7.7621704306
 20
47.5486983841
 30
0.0
 11
-9.3763303348
 21
47.5483200982
 31
0.0
  0
LINE
  5
22C
330
1F
100
AcDbEntity
  8
0
  6
Continuous
 62
     7
370
    15
100
AcDbLine
 10
-14.6795775577
 20
14.8757545226
 30
0.0
 11
-14.7062325413
 21
14.9179487663
 31
0.0
  0
LINE
  5
22D
330
1F
100
AcDbEntity
  8
0
  6
Continuous
 62
     7
370
    15
100
AcDbLine
 10
-13.5728604521
 20
43.5143471474
 30
0.0
 11
-14.7062325413
 21
14.9179487663
 31
0.0
  0
LINE
  5
22E
330
1F
100
AcDbEntity
  8
0
  6
Continuous
 62
     7
370
    15
100
AcDbLine
 10
-4.7361821571
 20
38.9691081161
 30
0.0
 11
-4.7628371408
 21
39.0113023599
 31
0.0
  0
LINE
  5
22F
330
1F
100
AcDbEntity
  8
0
  6
Continuous
 62
     7
370
    15
100
AcDbLine
 10
7.764867324
 20
47.5101367277
 30
0.0
 11
7.7382123404
 21
47.5523309715
 31
0.0
  0
LINE
  5
230
330
1F
100
AcDbEntity
  8
0
  6
Continuous
 62
     7
370
    15
100
AcDbLine
 10
6.2649302445
 20
46.0101191217
 30
0.0
 11
6.2382752608
 21
46.0523133654
 31
0.0
  0
LINE
  5
231
330
1F
100
AcDbEntity
  8
0
  6
Continuous
 62
     7
370
    15
100
AcDbLine
 10
9.3778240292
 20
47.5105147317
 30
0.0
 11
9.3511690455
 21
47.5527089754
 31
0.0
  0
LINE
  5
232
330
1F
100
AcDbEntity
  8
0
  6
Continuous
 62
     7
370
    15
100
AcDbLine
 10
9.3511690455
 20
47.5527089754
 30
0.0
 11
7.7382123404
 21
47.5523309715
 31
0.0
  0
LINE
  5
233
330
1F
100
AcDbEntity
  8
0
  6
Continuous
 62
     7
370
    15
100
AcDbLine
 10
6.2646705897
 20
40.4713523063
 30
0.0
 11
6.238015606
 21
40.5135465501
 31
0.0
  0
LINE
  5
234
330
1F
100
AcDbEntity
  8
0
  6
Continuous
 62
     7
370
    15
100
AcDbLine
 10
6.2382752608
 20
46.0523133654
 30
0.0
 11
6.238015606
 21
40.5135465501
 31
0.0
  0
LINE
  5
235
330
1F
100
AcDbEntity
  8
0
  6
Continuous
 62
     7
370
    15
100
AcDbLine
 10
4.7647335102
 20
38.9713347003
 30
0.0
 11
4.7380785265
 21
39.013528944
 31
0.0
  0
LINE
  5
236
330
1F
100
AcDbEntity
  8
0
  6
Continuous
 62
     7
370
    15
100
AcDbLine
 10
4.7380785265
 20
39.013528944
 30
0.0
 11
-4.7628371408
 21
39.0113023599
 31
0.0
  0
LINE
  5
237
330
1F
100
AcDbEntity
  8
0
  6
Continuous
 62
     7
370
    15
100
AcDbLine
 10
-9.9841720507
 20
34.3689022196
 30
0.0
 11
-10.0108270344
 21
34.4110964633
 31
0.0
  0
LINE
  5
238
330
1F
100
AcDbEntity
  8
0
  6
Continuous
 62
     7
370
    15
100
AcDbLine
 10
-9.9842517282
 20
32.6692806336
 30
0.0
 11
-10.0109067119
 21
32.7114748774
 31
0.0
  0
LINE
  5
239
330
1F
100
AcDbEntity
  8
0
  6
Continuous
 62
     7
370
    15
100
AcDbLine
 10
-10.0109067119
 20
32.7114748774
 30
0.0
 11
-10.0108270344
 21
34.4110964633
 31
0.0
  0
LINE
  5
23A
330
1F
100
AcDbEntity
  8
0
  6
Continuous
 62
     7
370
    15
100
AcDbLine
 10
-11.2341758599
 20
31.9191546637
 30
0.0
 11
-11.2608308436
 21
31.9613489074
 31
0.0
  0
LINE
  5
23B
330
1F
100
AcDbEntity
  8
0
  6
Continuous
 62
     7
370
    15
100
AcDbLine
 10
-10.734220268
 20
31.9192718306
 30
0.0
 11
-10.7608752517
 21
31.9614660744
 31
0.0
  0
LINE
  5
23C
330
1F
100
AcDbEntity
  8
0
  6
Continuous
 62
     7
370
    15
100
AcDbLine
 10
-11.2608308436
 20
31.9613489074
 30
0.0
 11
-10.7608752517
 21
31.9614660744
 31
0.0
  0
LINE
  5
23D
330
1F
100
AcDbEntity
  8
0
  6
Continuous
 62
     7
370
    15
100
AcDbLine
 10
-9.9847204191
 20
22.6715065987
 30
0.0
 11
-10.0113754028
 21
22.7137008425
 31
0.0
  0
LINE
  5
23E
330
1F
100
AcDbEntity
  8
0
  6
Continuous
 62
     7
370
    15
100
AcDbLine
 10
-9.9848000966
 20
20.9718850128
 30
0.0
 11
-10.0114550803
 21
21.0140792565
 31
0.0
  0
LINE
  5
23F
330
1F
100
AcDbEntity
  8
0
  6
Continuous
 62
     7
370
    15
100
AcDbLine
 10
-10.0114550803
 20
21.0140792565
 30
0.0
 11
-10.0113754028
 21
22.7137008425
 31
0.0
  0
LINE
  5
240
330
1F
100
AcDbEntity
  8
0
  6
Continuous
 62
     7
370
    15
100
AcDbLine
 10
-11.2347242283
 20
20.2217590428
 30
0.0
 11
-11.261379212
 21
20.2639532866
 31
0.0
  0
LINE
  5
241
330
1F
100
AcDbEntity
  8
0
  6
Continuous
 62
     7
370
    15
100
AcDbLine
 10
12.0138739959
 20
34.3740575648
 30
0.0
 11
11.9872190122
 21
34.4162518085
 31
0.0
  0
LINE
  5
242
330
1F
100
AcDbEntity
  8
0
  6
Continuous
 62
     7
370
    15
100
AcDbLine
 10
-10.7347686364
 20
20.2218762097
 30
0.0
 11
-10.76142362
 21
20.2640704535
 31
0.0
  0
LINE
  5
243
330
1F
100
AcDbEntity
  8
0
  6
Continuous
 62
     7
370
    15
100
AcDbLine
 10
-11.261379212
 20
20.2639532866
 30
0.0
 11
-10.76142362
 21
20.2640704535
 31
0.0
  0
LINE
  5
244
330
1F
100
AcDbEntity
  8
0
  6
Continuous
 62
     7
370
    15
100
AcDbLine
 10
12.0137943184
 20
32.6744359788
 30
0.0
 11
11.9871393348
 21
32.7166302226
 31
0.0
  0
LINE
  5
245
330
1F
100
AcDbEntity
  8
0
  6
Continuous
 62
     7
370
    15
100
AcDbLine
 10
11.9871393348
 20
32.7166302226
 30
0.0
 11
11.9872190122
 21
34.4162518085
 31
0.0
  0
LINE
  5
246
330
1F
100
AcDbEntity
  8
0
  6
Continuous
 62
     7
370
    15
100
AcDbLine
 10
10.7638701867
 20
31.9243100089
 30
0.0
 11
10.737215203
 21
31.9665042526
 31
0.0
  0
LINE
  5
247
330
1F
100
AcDbEntity
  8
0
  6
Continuous
 62
     7
370
    15
100
AcDbLine
 10
11.2638257787
 20
31.9244271758
 30
0.0
 11
11.237170795
 21
31.9666214196
 31
0.0
  0
LINE
  5
248
330
1F
100
AcDbEntity
  8
0
  6
Continuous
 62
     7
370
    15
100
AcDbLine
 10
10.737215203
 20
31.9665042526
 30
0.0
 11
11.237170795
 21
31.9666214196
 31
0.0
  0
LINE
  5
249
330
1F
100
AcDbEntity
  8
0
  6
Continuous
 62
     7
370
    15
100
AcDbLine
 10
-11.5738519957
 20
12.4734047747
 30
0.0
 11
-11.6005069793
 21
12.5155990184
 31
0.0
  0
LINE
  5
24A
330
1F
100
AcDbEntity
  8
0
  6
Continuous
 62
     7
370
    15
100
AcDbLine
 10
-12.5644752744
 20
-12.5212621953
 30
0.0
 11
-12.591130258
 21
-12.4790679515
 31
0.0
  0
LINE
  5
24B
330
1F
100
AcDbEntity
  8
0
  6
Continuous
 62
     7
370
    15
100
AcDbLine
 10
-11.6005069793
 20
12.5155990184
 30
0.0
 11
-12.591130258
 21
-12.4790679515
 31
0.0
  0
LINE
  5
24C
330
1F
100
AcDbEntity
  8
0
  6
Continuous
 62
     7
370
    15
100
AcDbLine
 10
-0.8625489618
 20
15.0175589905
 30
0.0
 11
-0.8358939781
 21
14.9753647467
 31
0.0
  0
LINE
  5
24D
330
1F
100
AcDbEntity
  8
0
  6
Continuous
 62
     7
370
    15
100
AcDbLine
 10
1.5872920252
 20
16.2678548628
 30
0.0
 11
1.6139470089
 21
16.2256606191
 31
0.0
  0
LINE
  5
24E
330
1F
100
AcDbEntity
  8
0
  6
Continuous
 62
     7
370
    15
100
AcDbLine
 10
12.0133256275
 20
22.6766619439
 30
0.0
 11
11.9866706438
 21
22.7188561876
 31
0.0
  0
LINE
  5
24F
330
1F
100
AcDbEntity
  8
0
  6
Continuous
 62
     7
370
    15
100
AcDbLine
 10
-0.8625489618
 20
15.0175589905
 30
0.0
 11
0.8373000509
 21
15.0179573581
 31
0.0
  0
LINE
  5
250
330
1F
100
AcDbEntity
  8
0
  6
Continuous
 62
     7
370
    15
100
AcDbLine
 10
0.8373000509
 20
15.0179573581
 30
0.0
 11
0.8639550346
 21
14.9757631143
 31
0.0
  0
LINE
  5
251
330
1F
100
AcDbEntity
  8
0
  6
Continuous
 62
     7
370
    15
100
AcDbLine
 10
1.5872685907
 20
15.7679661611
 30
0.0
 11
1.5872920252
 21
16.2678548628
 31
0.0
  0
LINE
  5
252
330
1F
100
AcDbEntity
  8
0
  6
Continuous
 62
     7
370
    15
100
AcDbLine
 10
1.5872685907
 20
15.7679661611
 30
0.0
 11
1.6139235744
 21
15.7257719173
 31
0.0
  0
LINE
  5
253
330
1F
100
AcDbEntity
  8
0
  6
Continuous
 62
     7
370
    15
100
AcDbLine
 10
12.01324595
 20
20.9770403579
 30
0.0
 11
11.9865909664
 21
21.0192346017
 31
0.0
  0
LINE
  5
254
330
1F
100
AcDbEntity
  8
0
  6
Continuous
 62
     7
370
    15
100
AcDbLine
 10
11.9865909664
 20
21.0192346017
 30
0.0
 11
11.9866706438
 21
22.7188561876
 31
0.0
  0
LINE
  5
255
330
1F
100
AcDbEntity
  8
0
  6
Continuous
 62
     7
370
    15
100
AcDbLine
 10
10.7633218183
 20
20.226914388
 30
0.0
 11
10.7366668346
 21
20.2691086317
 31
0.0
  0
LINE
  5
256
330
1F
100
AcDbEntity
  8
0
  6
Continuous
 62
     7
370
    15
100
AcDbLine
 10
11.2632774103
 20
20.2270315549
 30
0.0
 11
11.2366224266
 21
20.2692257987
 31
0.0
  0
LINE
  5
257
330
1F
100
AcDbEntity
  8
0
  6
Continuous
 62
     7
370
    15
100
AcDbLine
 10
10.7366668346
 20
20.2691086317
 30
0.0
 11
11.2366224266
 21
20.2692257987
 31
0.0
  0
LINE
  5
258
330
1F
100
AcDbEntity
  8
0
  6
Continuous
 62
     7
370
    15
100
AcDbLine
 10
-0.8629942182
 20
5.5196736573
 30
0.0
 11
-0.8363392345
 21
5.4774794135
 31
0.0
  0
LINE
  5
259
330
1F
100
AcDbEntity
  8
0
  6
Continuous
 62
     7
370
    15
100
AcDbLine
 10
1.5868467688
 20
6.7699695297
 30
0.0
 11
1.6135017525
 21
6.7277752859
 31
0.0
  0
LINE
  5
25A
330
1F
100
AcDbEntity
  8
0
  6
Continuous
 62
     7
370
    15
100
AcDbLine
 10
-0.8629942182
 20
5.5196736573
 30
0.0
 11
0.8368547945
 21
5.5200720249
 31
0.0
  0
LINE
  5
25B
330
1F
100
AcDbEntity
  8
0
  6
Continuous
 62
     7
370
    15
100
AcDbLine
 10
0.8368547945
 20
5.5200720249
 30
0.0
 11
0.8635097782
 21
5.4778777811
 31
0.0
  0
LINE
  5
25C
330
1F
100
AcDbEntity
  8
0
  6
Continuous
 62
     7
370
    15
100
AcDbLine
 10
1.5868233343
 20
6.2700808279
 30
0.0
 11
1.5868467688
 21
6.7699695297
 31
0.0
  0
LINE
  5
25D
330
1F
100
AcDbEntity
  8
0
  6
Continuous
 62
     7
370
    15
100
AcDbLine
 10
1.5868233343
 20
6.2700808279
 30
0.0
 11
1.613478318
 21
6.2278865842
 31
0.0
  0
LINE
  5
25E
330
1F
100
AcDbEntity
  8
0
  6
Continuous
 62
     7
370
    15
100
AcDbLine
 10
-14.1960520108
 20
-14.1209754575
 30
0.0
 11
-14.2227069945
 21
-14.0787812137
 31
0.0
  0
LINE
  5
25F
330
1F
100
AcDbEntity
  8
0
  6
Continuous
 62
     7
370
    15
100
AcDbLine
 10
-14.8677152129
 20
-14.1211328649
 30
0.0
 11
-14.8943701966
 21
-14.0789386211
 31
0.0
  0
LINE
  5
260
330
1F
100
AcDbEntity
  8
0
  6
Continuous
 62
     7
370
    15
100
AcDbLine
 10
-15.8668890503
 20
-15.081602615
 30
0.0
 11
-15.893544034
 21
-15.0394083713
 31
0.0
  0
LINE
  5
261
330
1F
100
AcDbEntity
  8
0
  6
Continuous
 62
     7
370
    15
100
AcDbLine
 10
-16.7273804231
 20
-36.7928784901
 30
0.0
 11
-16.7540354068
 21
-36.7506842463
 31
0.0
  0
LINE
  5
262
330
1F
100
AcDbEntity
  8
0
  6
Continuous
 62
     7
370
    15
100
AcDbLine
 10
-15.893544034
 20
-15.0394083713
 30
0.0
 11
-16.7540354068
 21
-36.7506842463
 31
0.0
  0
LINE
  5
263
330
1F
100
AcDbEntity
  8
0
  6
Continuous
 62
     7
370
    15
100
AcDbLine
 10
-14.2227069945
 20
-14.0787812137
 30
0.0
 11
-14.8943701966
 21
-14.0789386211
 31
0.0
  0
LINE
  5
264
330
1F
100
AcDbEntity
  8
0
  6
Continuous
 62
     7
370
    15
100
AcDbLine
 10
-0.8636035164
 20
-7.4774325881
 30
0.0
 11
-0.8369485327
 21
-7.5196268319
 31
0.0
  0
LINE
  5
265
330
1F
100
AcDbEntity
  8
0
  6
Continuous
 62
     7
370
    15
100
AcDbLine
 10
1.5862374706
 20
-6.2271367158
 30
0.0
 11
1.6128924543
 21
-6.2693309595
 31
0.0
  0
LINE
  5
266
330
1F
100
AcDbEntity
  8
0
  6
Continuous
 62
     7
370
    15
100
AcDbLine
 10
-0.8636035164
 20
-7.4774325881
 30
0.0
 11
0.8362454963
 21
-7.4770342205
 31
0.0
  0
LINE
  5
267
330
1F
100
AcDbEntity
  8
0
  6
Continuous
 62
     7
370
    15
100
AcDbLine
 10
0.8362454963
 20
-7.4770342205
 30
0.0
 11
0.86290048
 21
-7.5192284643
 31
0.0
  0
LINE
  5
268
330
1F
100
AcDbEntity
  8
0
  6
Continuous
 62
     7
370
    15
100
AcDbLine
 10
1.5862140361
 20
-6.7270254175
 30
0.0
 11
1.5862374706
 21
-6.2271367158
 31
0.0
  0
LINE
  5
269
330
1F
100
AcDbEntity
  8
0
  6
Continuous
 62
     7
370
    15
100
AcDbLine
 10
1.5862140361
 20
-6.7270254175
 30
0.0
 11
1.6128690198
 21
-6.7692196613
 31
0.0
  0
LINE
  5
26A
330
1F
100
AcDbEntity
  8
0
  6
Continuous
 62
     7
370
    15
100
AcDbLine
 10
-0.8640487728
 20
-16.9753179213
 30
0.0
 11
-0.8373937891
 21
-17.0175121651
 31
0.0
  0
LINE
  5
26B
330
1F
100
AcDbEntity
  8
0
  6
Continuous
 62
     7
370
    15
100
AcDbLine
 10
1.5857922142
 20
-15.7250220489
 30
0.0
 11
1.6124471979
 21
-15.7672162927
 31
0.0
  0
LINE
  5
26C
330
1F
100
AcDbEntity
  8
0
  6
Continuous
 62
     7
370
    15
100
AcDbLine
 10
-0.8640487728
 20
-16.9753179213
 30
0.0
 11
0.8358002399
 21
-16.9749195537
 31
0.0
  0
LINE
  5
26D
330
1F
100
AcDbEntity
  8
0
  6
Continuous
 62
     7
370
    15
100
AcDbLine
 10
0.8358002399
 20
-16.9749195537
 30
0.0
 11
0.8624552236
 21
-17.0171137975
 31
0.0
  0
LINE
  5
26E
330
1F
100
AcDbEntity
  8
0
  6
Continuous
 62
     7
370
    15
100
AcDbLine
 10
-9.2474440389
 20
-23.8052876349
 30
0.0
 11
-9.2740990226
 21
-23.7630933912
 31
0.0
  0
LINE
  5
26F
330
1F
100
AcDbEntity
  8
0
  6
Continuous
 62
     7
370
    15
100
AcDbLine
 10
1.5857687797
 20
-16.2249107507
 30
0.0
 11
1.5857922142
 21
-15.7250220489
 31
0.0
  0
LINE
  5
270
330
1F
100
AcDbEntity
  8
0
  6
Continuous
 62
     7
370
    15
100
AcDbLine
 10
1.5857687797
 20
-16.2249107507
 30
0.0
 11
1.6124237634
 21
-16.2671049945
 31
0.0
  0
LINE
  5
271
330
1F
100
AcDbEntity
  8
0
  6
Continuous
 62
     7
370
    15
100
AcDbLine
 10
-9.2475237164
 20
-25.5049092209
 30
0.0
 11
-9.2741787001
 21
-25.4627149771
 31
0.0
  0
LINE
  5
272
330
1F
100
AcDbEntity
  8
0
  6
Continuous
 62
     7
370
    15
100
AcDbLine
 10
-9.2741787001
 20
-25.4627149771
 30
0.0
 11
-9.2740990226
 21
-23.7630933912
 31
0.0
  0
LINE
  5
273
330
1F
100
AcDbEntity
  8
0
  6
Continuous
 62
     7
370
    15
100
AcDbLine
 10
-10.4974478481
 20
-26.2550351908
 30
0.0
 11
-10.5241028318
 21
-26.2128409471
 31
0.0
  0
LINE
  5
274
330
1F
100
AcDbEntity
  8
0
  6
Continuous
 62
     7
370
    15
100
AcDbLine
 10
-9.9974922562
 20
-26.2549180239
 30
0.0
 11
-10.0241472398
 21
-26.2127237801
 31
0.0
  0
LINE
  5
275
330
1F
100
AcDbEntity
  8
0
  6
Continuous
 62
     7
370
    15
100
AcDbLine
 10
-10.5241028318
 20
-26.2128409471
 30
0.0
 11
-10.0241472398
 21
-26.2127237801
 31
0.0
  0
LINE
  5
276
330
1F
100
AcDbEntity
  8
0
  6
Continuous
 62
     7
370
    15
100
AcDbLine
 10
14.2213853154
 20
-14.1143156978
 30
0.0
 11
14.1947303317
 21
-14.0721214541
 31
0.0
  0
LINE
  5
277
330
1F
100
AcDbEntity
  8
0
  6
Continuous
 62
     7
370
    15
100
AcDbLine
 10
14.8930485175
 20
-14.1141582904
 30
0.0
 11
14.8663935338
 21
-14.0719640467
 31
0.0
  0
LINE
  5
278
330
1F
100
AcDbEntity
  8
0
  6
Continuous
 62
     7
370
    15
100
AcDbLine
 10
14.8663935338
 20
-14.0719640467
 30
0.0
 11
14.1947303317
 21
-14.0721214541
 31
0.0
  0
LINE
  5
279
330
1F
100
AcDbEntity
  8
0
  6
Continuous
 62
     7
370
    15
100
AcDbLine
 10
11.2716916107
 20
-23.8004788793
 30
0.0
 11
11.245036627
 21
-23.7582846356
 31
0.0
  0
LINE
  5
27A
330
1F
100
AcDbEntity
  8
0
  6
Continuous
 62
     7
370
    15
100
AcDbLine
 10
-2.7679816534
 20
-33.214358366
 30
0.0
 11
-2.7946366371
 21
-33.1721641223
 31
0.0
  0
LINE
  5
27B
330
1F
100
AcDbEntity
  8
0
  6
Continuous
 62
     7
370
    15
100
AcDbLine
 10
11.2716119332
 20
-25.5001004653
 30
0.0
 11
11.2449569495
 21
-25.4579062215
 31
0.0
  0
LINE
  5
27C
330
1F
100
AcDbEntity
  8
0
  6
Continuous
 62
     7
370
    15
100
AcDbLine
 10
11.2449569495
 20
-25.4579062215
 30
0.0
 11
11.245036627
 21
-23.7582846356
 31
0.0
  0
LINE
  5
27D
330
1F
100
AcDbEntity
  8
0
  6
Continuous
 62
     7
370
    15
100
AcDbLine
 10
10.0216878015
 20
-26.2502264352
 30
0.0
 11
9.9950328178
 21
-26.2080321915
 31
0.0
  0
LINE
  5
27E
330
1F
100
AcDbEntity
  8
0
  6
Continuous
 62
     7
370
    15
100
AcDbLine
 10
-2.7680613309
 20
-34.913979952
 30
0.0
 11
-2.7947163145
 21
-34.8717857082
 31
0.0
  0
LINE
  5
27F
330
1F
100
AcDbEntity
  8
0
  6
Continuous
 62
     7
370
    15
100
AcDbLine
 10
-2.7947163145
 20
-34.8717857082
 30
0.0
 11
-2.7946366371
 21
-33.1721641223
 31
0.0
  0
LINE
  5
280
330
1F
100
AcDbEntity
  8
0
  6
Continuous
 62
     7
370
    15
100
AcDbLine
 10
-4.0179854626
 20
-35.6641059219
 30
0.0
 11
-4.0446404463
 21
-35.6219116782
 31
0.0
  0
LINE
  5
281
330
1F
100
AcDbEntity
  8
0
  6
Continuous
 62
     7
370
    15
100
AcDbLine
 10
10.5216433934
 20
-26.2501092683
 30
0.0
 11
10.4949884098
 21
-26.2079150245
 31
0.0
  0
LINE
  5
282
330
1F
100
AcDbEntity
  8
0
  6
Continuous
 62
     7
370
    15
100
AcDbLine
 10
9.9950328178
 20
-26.2080321915
 30
0.0
 11
10.4949884098
 21
-26.2079150245
 31
0.0
  0
LINE
  5
283
330
1F
100
AcDbEntity
  8
0
  6
Continuous
 62
     7
370
    15
100
AcDbLine
 10
-3.5180298706
 20
-35.663988755
 30
0.0
 11
-3.5446848543
 21
-35.6217945112
 31
0.0
  0
LINE
  5
284
330
1F
100
AcDbEntity
  8
0
  6
Continuous
 62
     7
370
    15
100
AcDbLine
 10
-4.0446404463
 20
-35.6219116782
 30
0.0
 11
-3.5446848543
 21
-35.6217945112
 31
0.0
  0
LINE
  5
285
330
1F
100
AcDbEntity
  8
0
  6
Continuous
 62
     7
370
    15
100
AcDbLine
 10
4.7913468972
 20
-33.212586802
 30
0.0
 11
4.7646919135
 21
-33.1703925582
 31
0.0
  0
LINE
  5
286
330
1F
100
AcDbEntity
  8
0
  6
Continuous
 62
     7
370
    15
100
AcDbLine
 10
4.7912672197
 20
-34.9122083879
 30
0.0
 11
4.764612236
 21
-34.8700141441
 31
0.0
  0
LINE
  5
287
330
1F
100
AcDbEntity
  8
0
  6
Continuous
 62
     7
370
    15
100
AcDbLine
 10
4.764612236
 20
-34.8700141441
 30
0.0
 11
4.7646919135
 21
-33.1703925582
 31
0.0
  0
LINE
  5
288
330
1F
100
AcDbEntity
  8
0
  6
Continuous
 62
     7
370
    15
100
AcDbLine
 10
3.541343088
 20
-35.6623343579
 30
0.0
 11
3.5146881043
 21
-35.6201401141
 31
0.0
  0
LINE
  5
289
330
1F
100
AcDbEntity
  8
0
  6
Continuous
 62
     7
370
    15
100
AcDbLine
 10
-6.4880702464
 20
-42.1527941845
 30
0.0
 11
-6.5147252301
 21
-42.1105999408
 31
0.0
  0
LINE
  5
28A
330
1F
100
AcDbEntity
  8
0
  6
Continuous
 62
     7
370
    15
100
AcDbLine
 10
4.0412986799
 20
-35.6622171909
 30
0.0
 11
4.0146436963
 21
-35.6200229472
 31
0.0
  0
LINE
  5
28B
330
1F
100
AcDbEntity
  8
0
  6
Continuous
 62
     7
370
    15
100
AcDbLine
 10
3.5146881043
 20
-35.6201401141
 30
0.0
 11
4.0146436963
 21
-35.6200229472
 31
0.0
  0
LINE
  5
28C
330
1F
100
AcDbEntity
  8
0
  6
Continuous
 62
     7
370
    15
100
AcDbLine
 10
-6.4881499239
 20
-43.8524157705
 30
0.0
 11
-6.5148049076
 21
-43.8102215267
 31
0.0
  0
LINE
  5
28D
330
1F
100
AcDbEntity
  8
0
  6
Continuous
 62
     7
370
    15
100
AcDbLine
 10
-6.5148049076
 20
-43.8102215267
 30
0.0
 11
-6.5147252301
 21
-42.1105999408
 31
0.0
  0
LINE
  5
28E
330
1F
100
AcDbEntity
  8
0
  6
Continuous
 62
     7
370
    15
100
AcDbLine
 10
-7.7380740556
 20
-44.6025417404
 30
0.0
 11
-7.7647290393
 21
-44.5603474967
 31
0.0
  0
LINE
  5
28F
330
1F
100
AcDbEntity
  8
0
  6
Continuous
 62
     7
370
    15
100
AcDbLine
 10
-7.2381184637
 20
-44.6024245735
 30
0.0
 11
-7.2647734473
 21
-44.5602303297
 31
0.0
  0
LINE
  5
290
330
1F
100
AcDbEntity
  8
0
  6
Continuous
 62
     7
370
    15
100
AcDbLine
 10
-7.7647290393
 20
-44.5603474967
 30
0.0
 11
-7.2647734473
 21
-44.5602303297
 31
0.0
  0
LINE
  5
291
330
1F
100
AcDbEntity
  8
0
  6
Continuous
 62
     7
370
    15
100
AcDbLine
 10
1.0112636331
 20
-42.1510366805
 30
0.0
 11
0.9846086494
 21
-42.1088424367
 31
0.0
  0
LINE
  5
292
330
1F
100
AcDbEntity
  8
0
  6
Continuous
 62
     7
370
    15
100
AcDbLine
 10
1.0111839556
 20
-43.8506582664
 30
0.0
 11
0.984528972
 21
-43.8084640227
 31
0.0
  0
LINE
  5
293
330
1F
100
AcDbEntity
  8
0
  6
Continuous
 62
     7
370
    15
100
AcDbLine
 10
0.984528972
 20
-43.8084640227
 30
0.0
 11
0.9846086494
 21
-42.1088424367
 31
0.0
  0
LINE
  5
294
330
1F
100
AcDbEntity
  8
0
  6
Continuous
 62
     7
370
    15
100
AcDbLine
 10
-0.2387401761
 20
-44.6007842364
 30
0.0
 11
-0.2653951598
 21
-44.5585899926
 31
0.0
  0
LINE
  5
295
330
1F
100
AcDbEntity
  8
0
  6
Continuous
 62
     7
370
    15
100
AcDbLine
 10
0.2612154159
 20
-44.6006670694
 30
0.0
 11
0.2345604322
 21
-44.5584728257
 31
0.0
  0
LINE
  5
296
330
1F
100
AcDbEntity
  8
0
  6
Continuous
 62
     7
370
    15
100
AcDbLine
 10
-0.2653951598
 20
-44.5585899926
 30
0.0
 11
0.2345604322
 21
-44.5584728257
 31
0.0
  0
LINE
  5
297
330
1F
100
AcDbEntity
  8
0
  6
Continuous
 62
     7
370
    15
100
AcDbLine
 10
8.5105975126
 20
-42.1492791764
 30
0.0
 11
8.483942529
 21
-42.1070849327
 31
0.0
  0
LINE
  5
298
330
1F
100
AcDbEntity
  8
0
  6
Continuous
 62
     7
370
    15
100
AcDbLine
 10
8.5105178352
 20
-43.8489007624
 30
0.0
 11
8.4838628515
 21
-43.8067065186
 31
0.0
  0
LINE
  5
299
330
1F
100
AcDbEntity
  8
0
  6
Continuous
 62
     7
370
    15
100
AcDbLine
 10
8.4838628515
 20
-43.8067065186
 30
0.0
 11
8.483942529
 21
-42.1070849327
 31
0.0
  0
LINE
  5
29A
330
1F
100
AcDbEntity
  8
0
  6
Continuous
 62
     7
370
    15
100
AcDbLine
 10
7.2605937034
 20
-44.5990267323
 30
0.0
 11
7.2339387198
 21
-44.5568324886
 31
0.0
  0
LINE
  5
29B
330
1F
100
AcDbEntity
  8
0
  6
Continuous
 62
     7
370
    15
100
AcDbLine
 10
7.7605492954
 20
-44.5989095654
 30
0.0
 11
7.7338943117
 21
-44.5567153216
 31
0.0
  0
LINE
  5
29C
330
1F
100
AcDbEntity
  8
0
  6
Continuous
 62
     7
370
    15
100
AcDbLine
 10
7.2339387198
 20
-44.5568324886
 30
0.0
 11
7.7338943117
 21
-44.5567153216
 31
0.0
  0
ARC
  5
29D
330
1F
100
AcDbEntity
  8
0
  6
Continuous
 62
     7
370
    15
100
AcDbCircle
 10
7.7603875657
 20
-43.8487793035
 30
0.0
 40
0.750130279290911
100
AcDbArc
 50
270.0123530921
 51
359.9907228402
  0
ARC
  5
29E
330
1F
100
AcDbEntity
  8
0
  6
Continuous
 62
     7
370
    15
100
AcDbCircle
 10
7.7609612388
 20
-42.1492581026
 30
0.0
 40
0.7496362741330872
100
AcDbArc
 50
359.998389295
 51
90.0200221559
  0
ARC
  5
29F
330
1F
100
AcDbEntity
  8
0
  6
Continuous
 62
     7
370
    15
100
AcDbCircle
 10
7.2609054142
 20
-42.149869303
 30
0.0
 40
0.750130279290924
100
AcDbArc
 50
90.0123530921
 51
179.9907228402
  0
ARC
  5
2A0
330
1F
100
AcDbEntity
  8
0
  6
Continuous
 62
     7
370
    15
100
AcDbCircle
 10
7.2603317411
 20
-43.849390504
 30
0.0
 40
0.749636274133085
100
AcDbArc
 50
179.998389295
 51
270.0200221559
  0
ARC
  5
2A1
330
1F
100
AcDbEntity
  8
0
  6
Continuous
 62
     7
370
    15
100
AcDbCircle
 10
10.0214258392
 20
-25.5005902069
 30
0.0
 40
0.7496362741330855
100
AcDbArc
 50
179.998389295
 51
270.0200221559
  0
ARC
  5
2A2
330
1F
100
AcDbEntity
  8
0
  6
Continuous
 62
     7
370
    15
100
AcDbCircle
 10
10.5214816638
 20
-25.4999790064
 30
0.0
 40
0.7501302792909137
100
AcDbArc
 50
270.0123530921
 51
359.9907228402
  0
ARC
  5
2A3
330
1F
100
AcDbEntity
  8
0
  6
Continuous
 62
     7
370
    15
100
AcDbCircle
 10
10.5220553368
 20
-23.8004578055
 30
0.0
 40
0.7496362741330784
100
AcDbArc
 50
359.998389295
 51
90.0200221559
  0
ARC
  5
2A4
330
1F
100
AcDbEntity
  8
0
  6
Continuous
 62
     7
370
    15
100
AcDbCircle
 10
10.0219995123
 20
-23.8010690059
 30
0.0
 40
0.7501302792909101
100
AcDbArc
 50
90.0123530921
 51
179.9907228402
  0
ARC
  5
2A5
330
1F
100
AcDbEntity
  8
0
  6
Continuous
 62
     7
370
    15
100
AcDbCircle
 10
-0.2384284653
 20
-42.1516268071
 30
0.0
 40
0.7501302792909098
100
AcDbArc
 50
90.0123530921
 51
179.9907228402
  0
ARC
  5
2A6
330
1F
100
AcDbEntity
  8
0
  6
Continuous
 62
     7
370
    15
100
AcDbCircle
 10
-0.2390021384
 20
-43.851148008
 30
0.0
 40
0.7496362741330992
100
AcDbArc
 50
179.998389295
 51
270.0200221559
  0
ARC
  5
2A7
330
1F
100
AcDbEntity
  8
0
  6
Continuous
 62
     7
370
    15
100
AcDbCircle
 10
0.2610536862
 20
-43.8505368076
 30
0.0
 40
0.7501302792909096
100
AcDbArc
 50
270.0123530921
 51
359.9907228402
  0
ARC
  5
2A8
330
1F
100
AcDbEntity
  8
0
  6
Continuous
 62
     7
370
    15
100
AcDbCircle
 10
0.2616273593
 20
-42.1510156066
 30
0.0
 40
0.7496362741330921
100
AcDbArc
 50
359.998389295
 51
90.0200221559
  0
ARC
  5
2A9
330
1F
100
AcDbEntity
  8
0
  6
Continuous
 62
     7
370
    15
100
AcDbCircle
 10
-7.2382801933
 20
-43.8522943116
 30
0.0
 40
0.7501302792909172
100
AcDbArc
 50
270.0123530921
 51
359.9907228402
  0
ARC
  5
2AA
330
1F
100
AcDbEntity
  8
0
  6
Continuous
 62
     7
370
    15
100
AcDbCircle
 10
-7.2377065203
 20
-42.1527731107
 30
0.0
 40
0.7496362741331014
100
AcDbArc
 50
359.998389295
 51
90.0200221559
  0
ARC
  5
2AB
330
1F
100
AcDbEntity
  8
0
  6
Continuous
 62
     7
370
    15
100
AcDbCircle
 10
-7.7377623449
 20
-42.1533843111
 30
0.0
 40
0.750130279290924
100
AcDbArc
 50
90.0123530921
 51
179.9907228402
  0
ARC
  5
2AC
330
1F
100
AcDbEntity
  8
0
  6
Continuous
 62
     7
370
    15
100
AcDbCircle
 10
-7.7383360179
 20
-43.8529055121
 30
0.0
 40
0.7496362741330992
100
AcDbArc
 50
179.998389295
 51
270.0200221559
  0
ARC
  5
2AD
330
1F
100
AcDbEntity
  8
0
  6
Continuous
 62
     7
370
    15
100
AcDbCircle
 10
-9.9970803128
 20
-23.8052665611
 30
0.0
 40
0.749636274133082
100
AcDbArc
 50
359.998389295
 51
90.0200221559
  0
ARC
  5
2AE
330
1F
100
AcDbEntity
  8
0
  6
Continuous
 62
     7
370
    15
100
AcDbCircle
 10
-10.4971361373
 20
-23.8058777615
 30
0.0
 40
0.7501302792909084
100
AcDbArc
 50
90.0123530921
 51
179.9907228402
  0
ARC
  5
2AF
330
1F
100
AcDbEntity
  8
0
  6
Continuous
 62
     7
370
    15
100
AcDbCircle
 10
-10.4977098104
 20
-25.5053989625
 30
0.0
 40
0.7496362741330956
100
AcDbArc
 50
179.998389295
 51
270.0200221559
  0
ARC
  5
2B0
330
1F
100
AcDbEntity
  8
0
  6
Continuous
 62
     7
370
    15
100
AcDbCircle
 10
-9.9976539858
 20
-25.5047877621
 30
0.0
 40
0.7501302792909137
100
AcDbArc
 50
270.0123530921
 51
359.9907228402
  0
ARC
  5
2B1
330
1F
100
AcDbEntity
  8
0
  6
Continuous
 62
     7
370
    15
100
AcDbCircle
 10
-3.5176179272
 20
-33.2143372922
 30
0.0
 40
0.7496362741330731
100
AcDbArc
 50
359.998389295
 51
90.0200221559
  0
ARC
  5
2B2
330
1F
100
AcDbEntity
  8
0
  6
Continuous
 62
     7
370
    15
100
AcDbCircle
 10
-4.0176737518
 20
-33.2149484926
 30
0.0
 40
0.7501302792908888
100
AcDbArc
 50
90.0123530921
 51
179.9907228402
  0
ARC
  5
2B3
330
1F
100
AcDbEntity
  8
0
  6
Continuous
 62
     7
370
    15
100
AcDbCircle
 10
-4.0182474249
 20
-34.9144696936
 30
0.0
 40
0.749636274133085
100
AcDbArc
 50
179.998389295
 51
270.0200221559
  0
ARC
  5
2B4
330
1F
100
AcDbEntity
  8
0
  6
Continuous
 62
     7
370
    15
100
AcDbCircle
 10
-3.5181916003
 20
-34.9138584931
 30
0.0
 40
0.7501302792909053
100
AcDbArc
 50
270.0123530921
 51
359.9907228402
  0
ARC
  5
2B5
330
1F
100
AcDbEntity
  8
0
  6
Continuous
 62
     7
370
    15
100
AcDbCircle
 10
4.0411369503
 20
-34.9120869291
 30
0.0
 40
0.7501302792909119
100
AcDbArc
 50
270.0123530921
 51
359.9907228402
  0
ARC
  5
2B6
330
1F
100
AcDbEntity
  8
0
  6
Continuous
 62
     7
370
    15
100
AcDbCircle
 10
4.0417106233
 20
-33.2125657281
 30
0.0
 40
0.7496362741330811
100
AcDbArc
 50
359.998389295
 51
90.0200221559
  0
ARC
  5
2B7
330
1F
100
AcDbEntity
  8
0
  6
Continuous
 62
     7
370
    15
100
AcDbCircle
 10
3.5416547988
 20
-33.2131769285
 30
0.0
 40
0.7501302792909098
100
AcDbArc
 50
90.0123530921
 51
179.9907228402
  0
ARC
  5
2B8
330
1F
100
AcDbEntity
  8
0
  6
Continuous
 62
     7
370
    15
100
AcDbCircle
 10
3.5410811257
 20
-34.9126981295
 30
0.0
 40
0.7496362741331063
100
AcDbArc
 50
179.998389295
 51
270.0200221559
  0
ARC
  5
2B9
330
1F
100
AcDbEntity
  8
0
  6
Continuous
 62
     7
370
    15
100
AcDbCircle
 10
-10.7343819977
 20
32.6694020925
 30
0.0
 40
0.7501302792909276
100
AcDbArc
 50
270.0123530921
 51
359.9907228402
  0
ARC
  5
2BA
330
1F
100
AcDbEntity
  8
0
  6
Continuous
 62
     7
370
    15
100
AcDbCircle
 10
-10.7338083246
 20
34.3689232934
 30
0.0
 40
0.7496362741330784
100
AcDbArc
 50
359.998389295
 51
90.0200221559
  0
ARC
  5
2BB
330
1F
100
AcDbEntity
  8
0
  6
Continuous
 62
     7
370
    15
100
AcDbCircle
 10
-11.2338641492
 20
34.368312093
 30
0.0
 40
0.7501302792908959
100
AcDbArc
 50
90.0123530921
 51
179.9907228402
  0
ARC
  5
2BC
330
1F
100
AcDbEntity
  8
0
  6
Continuous
 62
     7
370
    15
100
AcDbCircle
 10
-11.2344378222
 20
32.668790892
 30
0.0
 40
0.7496362741330925
100
AcDbArc
 50
179.998389295
 51
270.0200221559
  0
ARC
  5
2BD
330
1F
100
AcDbEntity
  8
0
  6
Continuous
 62
     7
370
    15
100
AcDbCircle
 10
-10.734930366
 20
20.9720064716
 30
0.0
 40
0.750130279290903
100
AcDbArc
 50
270.0123530921
 51
359.9907228402
  0
ARC
  5
2BE
330
1F
100
AcDbEntity
  8
0
  6
Continuous
 62
     7
370
    15
100
AcDbCircle
 10
-10.734356693
 20
22.6715276726
 30
0.0
 40
0.7496362741330872
100
AcDbArc
 50
359.998389295
 51
90.0200221559
  0
ARC
  5
2BF
330
1F
100
AcDbEntity
  8
0
  6
Continuous
 62
     7
370
    15
100
AcDbCircle
 10
-11.2344125176
 20
22.6709164721
 30
0.0
 40
0.7501302792909137
100
AcDbArc
 50
90.0123530921
 51
179.9907228402
  0
ARC
  5
2C0
330
1F
100
AcDbEntity
  8
0
  6
Continuous
 62
     7
370
    15
100
AcDbCircle
 10
-11.2349861906
 20
20.9713952712
 30
0.0
 40
0.7496362741330885
100
AcDbArc
 50
179.998389295
 51
270.0200221559
  0
ARC
  5
2C1
330
1F
100
AcDbEntity
  8
0
  6
Continuous
 62
     7
370
    15
100
AcDbCircle
 10
10.763059856
 20
20.9765506164
 30
0.0
 40
0.7496362741330961
100
AcDbArc
 50
179.998389295
 51
270.0200221559
  0
ARC
  5
2C2
330
1F
100
AcDbEntity
  8
0
  6
Continuous
 62
     7
370
    15
100
AcDbCircle
 10
11.2631156806
 20
20.9771618168
 30
0.0
 40
0.7501302792909169
100
AcDbArc
 50
270.0123530921
 51
359.9907228402
  0
ARC
  5
2C3
330
1F
100
AcDbEntity
  8
0
  6
Continuous
 62
     7
370
    15
100
AcDbCircle
 10
11.2636893537
 20
22.6766830177
 30
0.0
 40
0.749636274133078
100
AcDbArc
 50
359.998389295
 51
90.0200221559
  0
ARC
  5
2C4
330
1F
100
AcDbEntity
  8
0
  6
Continuous
 62
     7
370
    15
100
AcDbCircle
 10
10.7636335291
 20
22.6760718173
 30
0.0
 40
0.7501302792908959
100
AcDbArc
 50
90.0123530921
 51
179.9907228402
  0
ARC
  5
2C5
330
1F
100
AcDbEntity
  8
0
  6
Continuous
 62
     7
370
    15
100
AcDbCircle
 10
11.263664049
 20
32.6745574377
 30
0.0
 40
0.7501302792909276
100
AcDbArc
 50
270.0123530921
 51
359.9907228402
  0
ARC
  5
2C6
330
1F
100
AcDbEntity
  8
0
  6
Continuous
 62
     7
370
    15
100
AcDbCircle
 10
11.2642377221
 20
34.3740786386
 30
0.0
 40
0.7496362741330784
100
AcDbArc
 50
359.998389295
 51
90.0200221559
  0
ARC
  5
2C7
330
1F
100
AcDbEntity
  8
0
  6
Continuous
 62
     7
370
    15
100
AcDbCircle
 10
10.7641818975
 20
34.3734674382
 30
0.0
 40
0.7501302792909098
100
AcDbArc
 50
90.0123530921
 51
179.9907228402
  0
ARC
  5
2C8
330
1F
100
AcDbEntity
  8
0
  6
Continuous
 62
     7
370
    15
100
AcDbCircle
 10
10.7636082244
 20
32.6739462372
 30
0.0
 40
0.7496362741330925
100
AcDbArc
 50
179.998389295
 51
270.0200221559
  0
ARC
  5
2C9
330
1F
100
AcDbEntity
  8
0
  6
Continuous
 62
     7
370
    15
100
AcDbCircle
 10
-12.5329584373
 20
-36.9592100616
 30
0.0
 40
4.19771866449133
100
AcDbArc
 50
177.729101587
 51
217.1712659947
  0
ARC
  5
2CA
330
1F
100
AcDbEntity
  8
0
  6
Continuous
 62
     7
370
    15
100
AcDbCircle
 10
-14.8674938973
 20
-15.1213167663
 30
0.0
 40
1.000183925928895
100
AcDbArc
 50
90.0126781168
 51
177.7243669426
  0
ARC
  5
2CB
330
1F
100
AcDbEntity
  8
0
  6
Continuous
 62
     7
370
    15
100
AcDbCircle
 10
-14.1647546066
 20
-12.5210021822
 30
0.0
 40
1.600279353402899
100
AcDbArc
 50
268.8793684684
 51
359.9906905941
  0
ARC
  5
2CC
330
1F
100
AcDbEntity
  8
0
  6
Continuous
 62
     7
370
    15
100
AcDbCircle
 10
-13.1729323069
 20
12.4735179264
 30
0.0
 40
1.599080315205688
100
AcDbArc
 50
359.9959457213
 51
58.5017956326
  0
ARC
  5
2CD
330
1F
100
AcDbEntity
  8
0
  6
Continuous
 62
     7
370
    15
100
AcDbCircle
 10
-13.6808477685
 20
14.8361828408
 30
0.0
 40
0.9995134364741656
100
AcDbArc
 50
177.7310129163
 51
270.0200810627
  0
ARC
  5
2CE
330
1F
100
AcDbEntity
  8
0
  6
Continuous
 62
     7
370
    15
100
AcDbCircle
 10
-9.3487786546
 20
43.3053876201
 30
0.0
 40
4.20073832998394
100
AcDbArc
 50
90.012230452
 51
177.7248146075
  0
ARC
  5
2CF
330
1F
100
AcDbEntity
  8
0
  6
Continuous
 62
     7
370
    15
100
AcDbCircle
 10
-7.7349915223
 20
46.0072316836
 30
0.0
 40
1.499272548266177
100
AcDbArc
 50
359.998389295
 51
90.0200221559
  0
ARC
  5
2D0
330
1F
100
AcDbEntity
  8
0
  6
Continuous
 62
     7
370
    15
100
AcDbCircle
 10
-4.7367060817
 20
40.4683805729
 30
0.0
 40
1.499272548266163
100
AcDbArc
 50
179.998389295
 51
270.0200221559
  0
ARC
  5
2D1
330
1F
100
AcDbEntity
  8
0
  6
Continuous
 62
     7
370
    15
100
AcDbCircle
 10
4.7644100508
 20
40.471595224
 30
0.0
 40
1.500260558581813
100
AcDbArc
 50
270.0123530921
 51
359.9907228402
  0
ARC
  5
2D2
330
1F
100
AcDbEntity
  8
0
  6
Continuous
 62
     7
370
    15
100
AcDbCircle
 10
7.7651907834
 20
46.009876204
 30
0.0
 40
1.50026055858182
100
AcDbArc
 50
90.0123530921
 51
179.9907228402
  0
ARC
  5
2D3
330
1F
100
AcDbEntity
  8
0
  6
Continuous
 62
     7
370
    15
100
AcDbCircle
 10
9.3792483791
 20
43.312503825
 30
0.0
 40
4.198011148305983
100
AcDbArc
 50
2.2683499254
 51
90.0194399771
  0
ARC
  5
2D4
330
1F
100
AcDbEntity
  8
0
  6
Continuous
 62
     7
370
    15
100
AcDbCircle
 10
13.70823312
 20
14.8432677337
 30
0.0
 40
1.000179563224381
100
AcDbArc
 50
270.0125406031
 51
358.7037971937
  0
ARC
  5
2D5
330
1F
100
AcDbEntity
  8
0
  6
Continuous
 62
     7
370
    15
100
AcDbCircle
 10
13.201797422
 20
12.478647314
 30
0.0
 40
1.600118726481442
100
AcDbArc
 50
121.5136597083
 51
179.9932412157
  0
ARC
  5
2D6
330
1F
100
AcDbEntity
  8
0
  6
Continuous
 62
     7
370
    15
100
AcDbCircle
 10
14.1891910111
 20
-12.5154073032
 30
0.0
 40
1.599232480840702
100
AcDbArc
 50
179.9985609227
 51
271.1535048209
  0
ARC
  5
2D7
330
1F
100
AcDbEntity
  8
0
  6
Continuous
 62
     7
370
    15
100
AcDbCircle
 10
14.893394542
 20
-15.113678814
 30
0.0
 40
0.9995205834445945
100
AcDbArc
 50
4.6179304913
 51
90.0198352551
  0
ARC
  5
2D8
330
1F
100
AcDbEntity
  8
0
  6
Continuous
 62
     7
370
    15
100
AcDbCircle
 10
12.554155704
 20
-36.9508770154
 30
0.0
 40
4.199653770120609
100
AcDbArc
 50
322.8324204062
 51
2.2643372156
  0
ARC
  5
2D9
330
1F
100
AcDbEntity
  8
0
  6
Continuous
 62
     7
370
    15
100
AcDbCircle
 10
7.9228321408
 20
-43.0576117432
 30
0.0
 40
4.201113431172659
100
AcDbArc
 50
270.0148188671
 51
322.8344180394
  0
ARC
  5
2DA
330
1F
100
AcDbEntity
  8
0
  6
Continuous
 62
     7
370
    15
100
AcDbCircle
 10
-7.9029298814
 20
-43.0639178392
 30
0.0
 40
4.198516183050941
100
AcDbArc
 50
217.1748364229
 51
270.0168813091
  0
ARC
  5
2DB
330
1F
100
AcDbEntity
  8
0
  6
Continuous
 62
     7
370
    15
100
AcDbCircle
 10
0.8633480485
 20
6.228008043
 30
0.0
 40
0.7501302792909089
100
AcDbArc
 50
270.0123530921
 51
359.9907228402
  0
ARC
  5
2DC
330
1F
100
AcDbEntity
  8
0
  6
Continuous
 62
     7
370
    15
100
AcDbCircle
 10
0.8638654787
 20
6.7277963598
 30
0.0
 40
0.7496362741330842
100
AcDbArc
 50
359.998389295
 51
90.0200221559
  0
ARC
  5
2DD
330
1F
100
AcDbEntity
  8
0
  6
Continuous
 62
     7
370
    15
100
AcDbCircle
 10
-0.8360837666
 20
6.7269039587
 30
0.0
 40
0.7501302792909054
100
AcDbArc
 50
90.0123530921
 51
179.9907228402
  0
ARC
  5
2DE
330
1F
100
AcDbEntity
  8
0
  6
Continuous
 62
     7
370
    15
100
AcDbCircle
 10
-0.8366011968
 20
6.2271156419
 30
0.0
 40
0.7496362741330885
100
AcDbArc
 50
179.998389295
 51
270.0200221559
  0
ARC
  5
2DF
330
1F
100
AcDbEntity
  8
0
  6
Continuous
 62
     7
370
    15
100
AcDbCircle
 10
0.8637933049
 20
15.7258933762
 30
0.0
 40
0.7501302792909116
100
AcDbArc
 50
270.0123530921
 51
359.9907228402
  0
ARC
  5
2E0
330
1F
100
AcDbEntity
  8
0
  6
Continuous
 62
     7
370
    15
100
AcDbCircle
 10
0.8643107351
 20
16.2256816929
 30
0.0
 40
0.749636274133085
100
AcDbArc
 50
359.998389295
 51
90.0200221559
  0
ARC
  5
2E1
330
1F
100
AcDbEntity
  8
0
  6
Continuous
 62
     7
370
    15
100
AcDbCircle
 10
-0.8356385102
 20
16.2247892919
 30
0.0
 40
0.7501302792909134
100
AcDbArc
 50
90.0123530921
 51
179.9907228402
  0
ARC
  5
2E2
330
1F
100
AcDbEntity
  8
0
  6
Continuous
 62
     7
370
    15
100
AcDbCircle
 10
-0.8361559404
 20
15.7250009751
 30
0.0
 40
0.7496362741330849
100
AcDbArc
 50
179.998389295
 51
270.0200221559
  0
ARC
  5
2E3
330
1F
100
AcDbEntity
  8
0
  6
Continuous
 62
     7
370
    15
100
AcDbCircle
 10
0.8622934939
 20
-16.2669835356
 30
0.0
 40
0.7501302792909071
100
AcDbArc
 50
270.0123530921
 51
359.9907228402
  0
ARC
  5
2E4
330
1F
100
AcDbEntity
  8
0
  6
Continuous
 62
     7
370
    15
100
AcDbCircle
 10
0.8628109241
 20
-15.7671952189
 30
0.0
 40
0.7496362741330851
100
AcDbArc
 50
359.998389295
 51
90.0200221559
  0
ARC
  5
2E5
330
1F
100
AcDbEntity
  8
0
  6
Continuous
 62
     7
370
    15
100
AcDbCircle
 10
-0.8371383212
 20
-15.7680876199
 30
0.0
 40
0.7501302792909116
100
AcDbArc
 50
90.0123530921
 51
179.9907228402
  0
ARC
  5
2E6
330
1F
100
AcDbEntity
  8
0
  6
Continuous
 62
     7
370
    15
100
AcDbCircle
 10
-0.8376557514
 20
-16.2678759367
 30
0.0
 40
0.7496362741330853
100
AcDbArc
 50
179.998389295
 51
270.0200221559
  0
ARC
  5
2E7
330
1F
100
AcDbEntity
  8
0
  6
Continuous
 62
     7
370
    15
100
AcDbCircle
 10
0.8627387503
 20
-6.7690982024
 30
0.0
 40
0.7501302792909061
100
AcDbArc
 50
270.0123530921
 51
359.9907228402
  0
ARC
  5
2E8
330
1F
100
AcDbEntity
  8
0
  6
Continuous
 62
     7
370
    15
100
AcDbCircle
 10
0.8632561805
 20
-6.2693098857
 30
0.0
 40
0.749636274133085
100
AcDbArc
 50
359.998389295
 51
90.0200221559
  0
ARC
  5
2E9
330
1F
100
AcDbEntity
  8
0
  6
Continuous
 62
     7
370
    15
100
AcDbCircle
 10
-0.8366930648
 20
-6.2702022867
 30
0.0
 40
0.7501302792909098
100
AcDbArc
 50
90.0123530921
 51
179.9907228402
  0
ARC
  5
2EA
330
1F
100
AcDbEntity
  8
0
  6
Continuous
 62
     7
370
    15
100
AcDbCircle
 10
-0.837210495
 20
-6.7699906035
 30
0.0
 40
0.7496362741330833
100
AcDbArc
 50
179.998389295
 51
270.0200221559
  0
ARC
  5
2EB
330
1F
100
AcDbEntity
  8
0
  6
Continuous
 62
     7
370
    15
100
AcDbCircle
 10
-9.3754336383
 20
43.3475818639
 30
0.0
 40
4.20073832998394
100
AcDbArc
 50
90.012230452
 51
177.7248146075
  0
ARC
  5
2EC
330
1F
100
AcDbEntity
  8
0
  6
Continuous
 62
     7
370
    15
100
AcDbCircle
 10
-10.0096654915
 20
43.6595142042
 30
0.0
 40
1.599129893738422
100
AcDbArc
 50
359.9963516991
 51
32.2809453131
  0
ARC
  5
2ED
330
1F
100
AcDbEntity
  8
0
  6
Continuous
 62
     7
370
    15
100
AcDbCircle
 10
-10.0105921901
 20
43.6594578081
 30
0.0
 40
1.600056589743179
100
AcDbArc
 50
212.2979820716
 51
359.9983732769
  0
ARC
  5
2EE
330
1F
100
AcDbEntity
  8
0
  6
Continuous
 62
     7
370
    15
100
AcDbCircle
 10
-7.7617031769
 20
46.0492912199
 30
0.0
 40
1.499407237012295
100
AcDbArc
 50
32.2840614498
 51
90.0178548322
  0
ARC
  5
2EF
330
1F
100
AcDbEntity
  8
0
  6
Continuous
 62
     7
370
    15
100
AcDbCircle
 10
-4.7633043945
 20
40.5107095241
 30
0.0
 40
1.499407237012417
100
AcDbArc
 50
212.2840614498
 51
270.0178548322
  0
ARC
  5
2F0
330
1F
100
AcDbEntity
  8
0
  6
Continuous
 62
     7
370
    15
100
AcDbCircle
 10
7.7385357997
 20
46.0520704478
 30
0.0
 40
1.500260558581812
100
AcDbArc
 50
90.0123530921
 51
179.9907228402
  0
ARC
  5
2F1
330
1F
100
AcDbEntity
  8
0
  6
Continuous
 62
     7
370
    15
100
AcDbCircle
 10
-10.7604245175
 20
34.4111431175
 30
0.0
 40
0.7495974845108603
100
AcDbArc
 50
359.9964339669
 51
30.373061906
  0
ARC
  5
2F2
330
1F
100
AcDbEntity
  8
0
  6
Continuous
 62
     7
370
    15
100
AcDbCircle
 10
9.3524709246
 20
43.354357241
 30
0.0
 40
4.198351936234515
100
AcDbArc
 50
32.2841492671
 51
90.0177670149
  0
ARC
  5
2F3
330
1F
100
AcDbEntity
  8
0
  6
Continuous
 62
     7
370
    15
100
AcDbCircle
 10
-11.2610527118
 20
32.7110770769
 30
0.0
 40
0.7497282023016535
100
AcDbArc
 50
214.1925736205
 51
270.0169556258
  0
ARC
  5
2F4
330
1F
100
AcDbEntity
  8
0
  6
Continuous
 62
     7
370
    15
100
AcDbCircle
 10
9.9885581873
 20
43.6642008817
 30
0.0
 40
1.599129893738607
100
AcDbArc
 50
359.9963516991
 51
32.2809453131
  0
ARC
  5
2F5
330
1F
100
AcDbEntity
  8
0
  6
Continuous
 62
     7
370
    15
100
AcDbCircle
 10
9.9876314887
 20
43.6641444856
 30
0.0
 40
1.60005658974318
100
AcDbArc
 50
212.2979820716
 51
359.9983732769
  0
ARC
  5
2F6
330
1F
100
AcDbEntity
  8
0
  6
Continuous
 62
     7
370
    15
100
AcDbCircle
 10
-10.7610369813
 20
32.7115963362
 30
0.0
 40
0.7501302792909279
100
AcDbArc
 50
270.0123530921
 51
359.9907228402
  0
ARC
  5
2F7
330
1F
100
AcDbEntity
  8
0
  6
Continuous
 62
     7
370
    15
100
AcDbCircle
 10
-0.0109473525
 20
35.2637273536
 30
0.0
 40
1.599129893738634
100
AcDbArc
 50
359.9963516991
 51
32.2809453131
  0
ARC
  5
2F8
330
1F
100
AcDbEntity
  8
0
  6
Continuous
 62
     7
370
    15
100
AcDbCircle
 10
-0.0118740511
 20
35.2636709575
 30
0.0
 40
1.600056589743177
100
AcDbArc
 50
212.2979820716
 51
359.9983732769
  0
ARC
  5
2F9
330
1F
100
AcDbEntity
  8
0
  6
Continuous
 62
     7
370
    15
100
AcDbCircle
 10
4.7377550671
 20
40.5137894677
 30
0.0
 40
1.500260558581813
100
AcDbArc
 50
270.0123530921
 51
359.9907228402
  0
ARC
  5
2FA
330
1F
100
AcDbEntity
  8
0
  6
Continuous
 62
     7
370
    15
100
AcDbCircle
 10
-0.0112637189
 20
28.51522988
 30
0.0
 40
1.599129893738569
100
AcDbArc
 50
359.9963516991
 51
32.2809453131
  0
ARC
  5
2FB
330
1F
100
AcDbEntity
  8
0
  6
Continuous
 62
     7
370
    15
100
AcDbCircle
 10
-0.0121904175
 20
28.5151734839
 30
0.0
 40
1.600056589743177
100
AcDbArc
 50
212.2979820716
 51
359.9983732769
  0
ARC
  5
2FC
330
1F
100
AcDbEntity
  8
0
  6
Continuous
 62
     7
370
    15
100
AcDbCircle
 10
-10.7609728859
 20
22.7137474967
 30
0.0
 40
0.7495974845108214
100
AcDbArc
 50
359.9964339669
 51
30.3730619147
  0
ARC
  5
2FD
330
1F
100
AcDbEntity
  8
0
  6
Continuous
 62
     7
370
    15
100
AcDbCircle
 10
-11.2616010802
 20
21.013681456
 30
0.0
 40
0.749728202301723
100
AcDbArc
 50
214.1925736385
 51
270.0169556258
  0
ARC
  5
2FE
330
1F
100
AcDbEntity
  8
0
  6
Continuous
 62
     7
370
    15
100
AcDbCircle
 10
11.2376215292
 20
34.4162984627
 30
0.0
 40
0.7495974845109286
100
AcDbArc
 50
359.9964339669
 51
30.373061915
  0
ARC
  5
2FF
330
1F
100
AcDbEntity
  8
0
  6
Continuous
 62
     7
370
    15
100
AcDbCircle
 10
-10.7615853497
 20
21.0142007154
 30
0.0
 40
0.7501302792909066
100
AcDbArc
 50
270.0123530921
 51
359.9907228402
  0
ARC
  5
300
330
1F
100
AcDbEntity
  8
0
  6
Continuous
 62
     7
370
    15
100
AcDbCircle
 10
10.7369933348
 20
32.7162324221
 30
0.0
 40
0.7497282023017807
100
AcDbArc
 50
214.1925736362
 51
270.0169556258
  0
ARC
  5
301
330
1F
100
AcDbEntity
  8
0
  6
Continuous
 62
     7
370
    15
100
AcDbCircle
 10
11.2370090653
 20
32.7167516814
 30
0.0
 40
0.750130279290935
100
AcDbArc
 50
270.0123530921
 51
359.9907228402
  0
ARC
  5
302
330
1F
100
AcDbEntity
  8
0
  6
Continuous
 62
     7
370
    15
100
AcDbCircle
 10
-13.7075449987
 20
14.8783487428
 30
0.0
 40
0.9994723456497395
100
AcDbArc
 50
177.729293588
 51
212.2807400137
  0
ARC
  5
303
330
1F
100
AcDbEntity
  8
0
  6
Continuous
 62
     7
370
    15
100
AcDbCircle
 10
-13.1996438649
 20
12.5156988187
 30
0.0
 40
1.599136888673668
100
AcDbArc
 50
359.9964242381
 51
32.280872774
  0
ARC
  5
304
330
1F
100
AcDbEntity
  8
0
  6
Continuous
 62
     7
370
    15
100
AcDbCircle
 10
-0.86277083
 20
15.76728716
 30
0.0
 40
0.7497282023016894
100
AcDbArc
 50
214.1925736305
 51
270.0169556258
  0
ARC
  5
305
330
1F
100
AcDbEntity
  8
0
  6
Continuous
 62
     7
370
    15
100
AcDbCircle
 10
0.8376945422
 20
16.2679015171
 30
0.0
 40
0.7495974845108694
100
AcDbArc
 50
359.9964339669
 51
30.3730619133
  0
ARC
  5
306
330
1F
100
AcDbEntity
  8
0
  6
Continuous
 62
     7
370
    15
100
AcDbCircle
 10
11.2370731608
 20
22.7189028419
 30
0.0
 40
0.749597484510841
100
AcDbArc
 50
359.9964339669
 51
30.3730619111
  0
ARC
  5
307
330
1F
100
AcDbEntity
  8
0
  6
Continuous
 62
     7
370
    15
100
AcDbCircle
 10
0.8371383212
 20
15.7680876199
 30
0.0
 40
0.7501302792909107
100
AcDbArc
 50
270.0123530921
 51
359.9907228402
  0
ARC
  5
308
330
1F
100
AcDbEntity
  8
0
  6
Continuous
 62
     7
370
    15
100
AcDbCircle
 10
10.7364449664
 20
21.0188368012
 30
0.0
 40
0.7497282023017701
100
AcDbArc
 50
214.1925736374
 51
270.0169556258
  0
ARC
  5
309
330
1F
100
AcDbEntity
  8
0
  6
Continuous
 62
     7
370
    15
100
AcDbCircle
 10
11.2364606969
 20
21.0193560605
 30
0.0
 40
0.7501302792909137
100
AcDbArc
 50
270.0123530921
 51
359.9907228402
  0
ARC
  5
30A
330
1F
100
AcDbEntity
  8
0
  6
Continuous
 62
     7
370
    15
100
AcDbCircle
 10
-0.8632160864
 20
6.2694018268
 30
0.0
 40
0.7497282023016999
100
AcDbArc
 50
214.1925736305
 51
270.0169556258
  0
ARC
  5
30B
330
1F
100
AcDbEntity
  8
0
  6
Continuous
 62
     7
370
    15
100
AcDbCircle
 10
0.8372492858
 20
6.7700161839
 30
0.0
 40
0.7495974845108521
100
AcDbArc
 50
359.9964339669
 51
30.3730619133
  0
ARC
  5
30C
330
1F
100
AcDbEntity
  8
0
  6
Continuous
 62
     7
370
    15
100
AcDbCircle
 10
0.8366930648
 20
6.2702022867
 30
0.0
 40
0.7501302792909073
100
AcDbArc
 50
270.0123530921
 51
359.9907228402
  0
ARC
  5
30D
330
1F
100
AcDbEntity
  8
0
  6
Continuous
 62
     7
370
    15
100
AcDbCircle
 10
-14.1914095903
 20
-12.4788079385
 30
0.0
 40
1.600279353402905
100
AcDbArc
 50
268.8793684684
 51
359.9906905941
  0
ARC
  5
30E
330
1F
100
AcDbEntity
  8
0
  6
Continuous
 62
     7
370
    15
100
AcDbCircle
 10
-14.894148881
 20
-15.0791225226
 30
0.0
 40
1.000183925928889
100
AcDbArc
 50
90.0126781168
 51
177.7243669426
  0
ARC
  5
30F
330
1F
100
AcDbEntity
  8
0
  6
Continuous
 62
     7
370
    15
100
AcDbCircle
 10
-0.8638253846
 20
-6.7277044186
 30
0.0
 40
0.7497282023016972
100
AcDbArc
 50
214.1925736306
 51
270.0169556258
  0
ARC
  5
310
330
1F
100
AcDbEntity
  8
0
  6
Continuous
 62
     7
370
    15
100
AcDbCircle
 10
0.8366399876
 20
-6.2270900615
 30
0.0
 40
0.7495974845108465
100
AcDbArc
 50
359.9964339669
 51
30.3730619133
  0
ARC
  5
311
330
1F
100
AcDbEntity
  8
0
  6
Continuous
 62
     7
370
    15
100
AcDbCircle
 10
0.8360837666
 20
-6.7269039587
 30
0.0
 40
0.7501302792909063
100
AcDbArc
 50
270.0123530921
 51
359.9907228402
  0
ARC
  5
312
330
1F
100
AcDbEntity
  8
0
  6
Continuous
 62
     7
370
    15
100
AcDbCircle
 10
-0.864270641
 20
-16.2255897518
 30
0.0
 40
0.7497282023017026
100
AcDbArc
 50
214.1925736304
 51
270.0169556258
  0
ARC
  5
313
330
1F
100
AcDbEntity
  8
0
  6
Continuous
 62
     7
370
    15
100
AcDbCircle
 10
0.8361947312
 20
-15.7249753947
 30
0.0
 40
0.7495974845108518
100
AcDbArc
 50
359.9964339669
 51
30.3730619134
  0
ARC
  5
314
330
1F
100
AcDbEntity
  8
0
  6
Continuous
 62
     7
370
    15
100
AcDbCircle
 10
-10.0236965057
 20
-23.763046737
 30
0.0
 40
0.7495974845108905
100
AcDbArc
 50
359.9964339669
 51
30.3730619168
  0
ARC
  5
315
330
1F
100
AcDbEntity
  8
0
  6
Continuous
 62
     7
370
    15
100
AcDbCircle
 10
0.8356385102
 20
-16.2247892919
 30
0.0
 40
0.7501302792909169
100
AcDbArc
 50
270.0123530921
 51
359.9907228402
  0
ARC
  5
316
330
1F
100
AcDbEntity
  8
0
  6
Continuous
 62
     7
370
    15
100
AcDbCircle
 10
-10.5243247
 20
-25.4631127776
 30
0.0
 40
0.7497282023016939
100
AcDbArc
 50
214.1925736298
 51
270.0169556258
  0
ARC
  5
317
330
1F
100
AcDbEntity
  8
0
  6
Continuous
 62
     7
370
    15
100
AcDbCircle
 10
-10.0243089695
 20
-25.4625935183
 30
0.0
 40
0.7501302792909137
100
AcDbArc
 50
270.0123530921
 51
359.9907228402
  0
ARC
  5
318
330
1F
100
AcDbEntity
  8
0
  6
Continuous
 62
     7
370
    15
100
AcDbCircle
 10
14.1625968711
 20
-12.4730633114
 30
0.0
 40
1.599380974921146
100
AcDbArc
 50
212.2842212129
 51
271.1512176187
  0
ARC
  5
319
330
1F
100
AcDbEntity
  8
0
  6
Continuous
 62
     7
370
    15
100
AcDbCircle
 10
14.8667019991
 20
-15.0715743362
 30
0.0
 40
0.9996103371219566
100
AcDbArc
 50
32.2842356325
 51
90.0176806495
  0
ARC
  5
31A
330
1F
100
AcDbEntity
  8
0
  6
Continuous
 62
     7
370
    15
100
AcDbCircle
 10
-13.5131189531
 20
-36.6389950174
 30
0.0
 40
1.599129893738519
100
AcDbArc
 50
359.9963516991
 51
32.2809453131
  0
ARC
  5
31B
330
1F
100
AcDbEntity
  8
0
  6
Continuous
 62
     7
370
    15
100
AcDbCircle
 10
-13.5140456517
 20
-36.6390514135
 30
0.0
 40
1.600056589743175
100
AcDbArc
 50
212.2979820716
 51
359.9983732769
  0
ARC
  5
31C
330
1F
100
AcDbEntity
  8
0
  6
Continuous
 62
     7
370
    15
100
AcDbCircle
 10
-12.5595717061
 20
-36.9170107722
 30
0.0
 40
4.197760146730867
100
AcDbArc
 50
177.7291929629
 51
212.2808406388
  0
ARC
  5
31D
330
1F
100
AcDbEntity
  8
0
  6
Continuous
 62
     7
370
    15
100
AcDbCircle
 10
10.4954391439
 20
-23.7582379814
 30
0.0
 40
0.7495974845108939
100
AcDbArc
 50
359.9964339669
 51
30.37306192
  0
ARC
  5
31E
330
1F
100
AcDbEntity
  8
0
  6
Continuous
 62
     7
370
    15
100
AcDbCircle
 10
-3.5442341201
 20
-33.1721174681
 30
0.0
 40
0.749597484510826
100
AcDbArc
 50
359.9964339669
 51
30.3730619129
  0
ARC
  5
31F
330
1F
100
AcDbEntity
  8
0
  6
Continuous
 62
     7
370
    15
100
AcDbCircle
 10
9.9948109496
 20
-25.458304022
 30
0.0
 40
0.749728202301661
100
AcDbArc
 50
214.1925736244
 51
270.0169556258
  0
ARC
  5
320
330
1F
100
AcDbEntity
  8
0
  6
Continuous
 62
     7
370
    15
100
AcDbCircle
 10
-4.0448623145
 20
-34.8721835087
 30
0.0
 40
0.7497282023017097
100
AcDbArc
 50
214.1925736306
 51
270.0169556258
  0
ARC
  5
321
330
1F
100
AcDbEntity
  8
0
  6
Continuous
 62
     7
370
    15
100
AcDbCircle
 10
10.4948266801
 20
-25.4577847627
 30
0.0
 40
0.7501302792909101
100
AcDbArc
 50
270.0123530921
 51
359.9907228402
  0
ARC
  5
322
330
1F
100
AcDbEntity
  8
0
  6
Continuous
 62
     7
370
    15
100
AcDbCircle
 10
-3.544846584
 20
-34.8716642494
 30
0.0
 40
0.7501302792909098
100
AcDbArc
 50
270.0123530921
 51
359.9907228402
  0
ARC
  5
323
330
1F
100
AcDbEntity
  8
0
  6
Continuous
 62
     7
370
    15
100
AcDbCircle
 10
4.0150944304
 20
-33.170345904
 30
0.0
 40
0.7495974845108744
100
AcDbArc
 50
359.9964339669
 51
30.3730619132
  0
ARC
  5
324
330
1F
100
AcDbEntity
  8
0
  6
Continuous
 62
     7
370
    15
100
AcDbCircle
 10
3.5144662361
 20
-34.8704119446
 30
0.0
 40
0.7497282023017453
100
AcDbArc
 50
214.1925736304
 51
270.0169556258
  0
ARC
  5
325
330
1F
100
AcDbEntity
  8
0
  6
Continuous
 62
     7
370
    15
100
AcDbCircle
 10
-7.2643227132
 20
-42.1105532866
 30
0.0
 40
0.7495974845108854
100
AcDbArc
 50
359.9964339669
 51
30.3730619155
  0
ARC
  5
326
330
1F
100
AcDbEntity
  8
0
  6
Continuous
 62
     7
370
    15
100
AcDbCircle
 10
4.0144819666
 20
-34.8698926853
 30
0.0
 40
0.7501302792909169
100
AcDbArc
 50
270.0123530921
 51
359.9907228402
  0
ARC
  5
327
330
1F
100
AcDbEntity
  8
0
  6
Continuous
 62
     7
370
    15
100
AcDbCircle
 10
-7.7649509075
 20
-43.8106193272
 30
0.0
 40
0.7497282023017453
100
AcDbArc
 50
214.1925736354
 51
270.0169556258
  0
ARC
  5
328
330
1F
100
AcDbEntity
  8
0
  6
Continuous
 62
     7
370
    15
100
AcDbCircle
 10
-7.264935177
 20
-43.8101000679
 30
0.0
 40
0.7501302792909169
100
AcDbArc
 50
270.0123530921
 51
359.9907228402
  0
ARC
  5
329
330
1F
100
AcDbEntity
  8
0
  6
Continuous
 62
     7
370
    15
100
AcDbCircle
 10
0.2350111664
 20
-42.1087957825
 30
0.0
 40
0.7495974845108463
100
AcDbArc
 50
359.9964339669
 51
30.3730619131
  0
ARC
  5
32A
330
1F
100
AcDbEntity
  8
0
  6
Continuous
 62
     7
370
    15
100
AcDbCircle
 10
13.4844830133
 20
-36.6326680028
 30
0.0
 40
1.599129893738596
100
AcDbArc
 50
359.9963516991
 51
32.2809453131
  0
ARC
  5
32B
330
1F
100
AcDbEntity
  8
0
  6
Continuous
 62
     7
370
    15
100
AcDbCircle
 10
13.4835563147
 20
-36.6327243989
 30
0.0
 40
1.600056589743184
100
AcDbArc
 50
212.2979820716
 51
359.9983732769
  0
ARC
  5
32C
330
1F
100
AcDbEntity
  8
0
  6
Continuous
 62
     7
370
    15
100
AcDbCircle
 10
-0.265617028
 20
-43.8088618232
 30
0.0
 40
0.749728202301755
100
AcDbArc
 50
214.1925736306
 51
270.0169556258
  0
ARC
  5
32D
330
1F
100
AcDbEntity
  8
0
  6
Continuous
 62
     7
370
    15
100
AcDbCircle
 10
0.2343987025
 20
-43.8083425638
 30
0.0
 40
0.7501302792909096
100
AcDbArc
 50
270.0123530921
 51
359.9907228402
  0
ARC
  5
32E
330
1F
100
AcDbEntity
  8
0
  6
Continuous
 62
     7
370
    15
100
AcDbCircle
 10
7.7343450459
 20
-42.1070382785
 30
0.0
 40
0.7495974845108498
100
AcDbArc
 50
359.9964339669
 51
30.3730619116
  0
ARC
  5
32F
330
1F
100
AcDbEntity
  8
0
  6
Continuous
 62
     7
370
    15
100
AcDbCircle
 10
7.2337168516
 20
-43.8071043191
 30
0.0
 40
0.7497282023016741
100
AcDbArc
 50
214.1925736307
 51
270.0169556258
  0
ARC
  5
330
330
1F
100
AcDbEntity
  8
0
  6
Continuous
 62
     7
370
    15
100
AcDbCircle
 10
7.733732582
 20
-43.8065850598
 30
0.0
 40
0.7501302792909101
100
AcDbArc
 50
270.0123530921
 51
359.9907228402
  0
ENDSEC
  0
SECTION
  2
OBJECTS
  0
DICTIONARY
  5
C
330
0
100
AcDbDictionary
281
     1
  3
ACAD_GROUP
350
D
  3
ACAD_LAYOUT
350
1A
  3
ACAD_MLINESTYLE
350
17
  3
ACAD_PLOTSETTINGS
350
19
  3
ACAD_PLOTSTYLENAME
350
E
  3
ACAD_SCALELIST
350
47
  0
DICTIONARY
  5
D
102
{ACAD_REACTORS
330
C
102
}
330
C
100
AcDbDictionary
281
     1
  0
DICTIONARY
  5
1A
102
{ACAD_REACTORS
330
C
102
}
330
C
100
AcDbDictionary
281
     1
  3
Layout1
350
1E
  3
Layout2
350
26
  3
Model
350
22
  0
DICTIONARY
  5
17
102
{ACAD_REACTORS
330
C
102
}
330
C
100
AcDbDictionary
281
     1
  3
Standard
350
18
  0
DICTIONARY
  5
19
102
{ACAD_REACTORS
330
C
102
}
330
C
100
AcDbDictionary
281
     1
  0
ACDBDICTIONARYWDFLT
  5
E
102
{ACAD_REACTORS
330
C
102
}
330
C
100
AcDbDictionary
281
     1
  3
Normal
350
F
100
AcDbDictionaryWithDefault
340
F
  0
DICTIONARY
  5
47
102
{ACAD_REACTORS
330
C
102
}
330
C
100
AcDbDictionary
281
     1
  3
A0
350
48
  3
A1
350
49
  3
A2
350
4A
  3
A3
350
4B
  3
A4
350
4C
  3
A5
350
4D
  3
A6
350
4E
  3
A7
350
4F
  3
A8
350
50
  3
A9
350
51
  3
B0
350
52
  3
B1
350
53
  3
B2
350
54
  3
B3
350
55
  3
B4
350
56
  3
B5
350
57
  3
B6
350
58
  3
B7
350
59
  3
B8
350
5A
  3
B9
350
5B
  3
C0
350
5C
  3
C1
350
5D
  3
C2
350
5E
  3
C3
350
5F
  3
C4
350
60
  3
C5
350
61
  3
C6
350
62
  3
C7
350
63
  3
C8
350
64
  3
C9
350
65
  3
D0
350
66
  3
D1
350
67
  3
D2
350
68
  0
LAYOUT
  5
1E
102
{ACAD_REACTORS
330
1A
102
}
330
1A
100
AcDbPlotSettings
  1

  2
none_device
  4

  6

 40
0.0
 41
0.0
 42
0.0
 43
0.0
 44
0.0
 45
0.0
 46
0.0
 47
0.0
 48
0.0
 49
0.0
140
0.0
141
0.0
142
1.0
143
1.0
 70
   688
 72
     1
 73
     0
 74
     5
  7

 75
    16
147
1.0
148
0.0
149
0.0
100
AcDbLayout
  1
Layout1
 70
     1
 71
     1
 10
0.0
 20
0.0
 11
420.0
 21
297.0
 12
0.0
 22
0.0
 32
0.0
 14
1.0000000000E+20
 24
1.0000000000E+20
 34
1.0000000000E+20
 15
-1.0000000000E+20
 25
-1.0000000000E+20
 35
-1.0000000000E+20
146
0.0
 13
0.0
 23
0.0
 33
0.0
 16
1.0
 26
0.0
 36
0.0
 17
0.0
 27
1.0
 37
0.0
 76
     0
330
1B
  0
LAYOUT
  5
26
102
{ACAD_REACTORS
330
1A
102
}
330
1A
100
AcDbPlotSettings
  1

  2
none_device
  4

  6

 40
0.0
 41
0.0
 42
0.0
 43
0.0
 44
0.0
 45
0.0
 46
0.0
 47
0.0
 48
0.0
 49
0.0
140
0.0
141
0.0
142
1.0
143
1.0
 70
   688
 72
     1
 73
     0
 74
     5
  7

 75
    16
147
1.0
148
0.0
149
0.0
100
AcDbLayout
  1
Layout2
 70
     1
 71
     2
 10
0.0
 20
0.0
 11
0.0
 21
0.0
 12
0.0
 22
0.0
 32
0.0
 14
0.0
 24
0.0
 34
0.0
 15
0.0
 25
0.0
 35
0.0
146
0.0
 13
0.0
 23
0.0
 33
0.0
 16
1.0
 26
0.0
 36
0.0
 17
0.0
 27
1.0
 37
0.0
 76
     0
330
23
  0
LAYOUT
  5
22
102
{ACAD_REACTORS
330
1A
102
}
330
1A
100
AcDbPlotSettings
  1

  2
none_device
  4
ANSI_A_(11.00_x_8.50_Inches)
  6

 40
6.35
 41
19.05
 42
6.35000508
 43
19.05000254
 44
279.4
 45
215.9
 46
133.3539676947
 47
88.5728162789
 48
0.0
 49
0.0
140
0.0
141
0.0
142
0.0887516457
143
1.0
 70
  1696
 72
     0
 73
     0
 74
     0
  7

 75
     0
147
0.0179189148
148
-1300.4909072572
149
0.0
100
AcDbLayout
  1
Model
 70
     1
 71
     0
 10
0.0
 20
0.0
 11
420.0
 21
297.0
 12
0.0
 22
0.0
 32
0.0
 14
-16.7573318528
 24
-47.2624340223
 34
0.0
 15
16.7538094741
 25
47.5527091773
 35
0.0
146
0.0
 13
0.0
 23
0.0
 33
0.0
 16
1.0
 26
0.0
 36
0.0
 17
0.0
 27
1.0
 37
0.0
 76
     0
330
1F
331
29
  0
MLINESTYLE
  5
18
102
{ACAD_REACTORS
330
17
102
}
330
17
100
AcDbMlineStyle
  2
Standard
 70
     0
  3

 62
   256
 51
90.0
 52
90.0
 71
     2
 49
0.5
 62
   256
  6
BYLAYER
 49
-0.5
 62
   256
  6
BYLAYER
  0
ACDBPLACEHOLDER
  5
F
102
{ACAD_REACTORS
330
E
102
}
330
E
  0
SCALE
  5
48
102
{ACAD_REACTORS
330
47
102
}
330
47
100
AcDbScale
 70
     0
300
1:1
140
1.0
141
1.0
290
     1
  0
SCALE
  5
49
102
{ACAD_REACTORS
330
47
102
}
330
47
100
AcDbScale
 70
     0
300
1:2
140
1.0
141
2.0
290
     0
  0
SCALE
  5
4A
102
{ACAD_REACTORS
330
47
102
}
330
47
100
AcDbScale
 70
     0
300
1:4
140
1.0
141
4.0
290
     0
  0
SCALE
  5
4B
102
{ACAD_REACTORS
330
47
102
}
330
47
100
AcDbScale
 70
     0
300
1:5
140
1.0
141
5.0
290
     0
  0
SCALE
  5
4C
102
{ACAD_REACTORS
330
47
102
}
330
47
100
AcDbScale
 70
     0
300
1:8
140
1.0
141
8.0
290
     0
  0
SCALE
  5
4D
102
{ACAD_REACTORS
330
47
102
}
330
47
100
AcDbScale
 70
     0
300
1:10
140
1.0
141
10.0
290
     0
  0
SCALE
  5
4E
102
{ACAD_REACTORS
330
47
102
}
330
47
100
AcDbScale
 70
     0
300
1:16
140
1.0
141
16.0
290
     0
  0
SCALE
  5
4F
102
{ACAD_REACTORS
330
47
102
}
330
47
100
AcDbScale
 70
     0
300
1:20
140
1.0
141
20.0
290
     0
  0
SCALE
  5
50
102
{ACAD_REACTORS
330
47
102
}
330
47
100
AcDbScale
 70
     0
300
1:30
140
1.0
141
30.0
290
     0
  0
SCALE
  5
51
102
{ACAD_REACTORS
330
47
102
}
330
47
100
AcDbScale
 70
     0
300
1:40
140
1.0
141
40.0
290
     0
  0
SCALE
  5
52
102
{ACAD_REACTORS
330
47
102
}
330
47
100
AcDbScale
 70
     0
300
1:50
140
1.0
141
50.0
290
     0
  0
SCALE
  5
53
102
{ACAD_REACTORS
330
47
102
}
330
47
100
AcDbScale
 70
     0
300
1:100
140
1.0
141
100.0
290
     0
  0
SCALE
  5
54
102
{ACAD_REACTORS
330
47
102
}
330
47
100
AcDbScale
 70
     0
300
2:1
140
2.0
141
1.0
290
     0
  0
SCALE
  5
55
102
{ACAD_REACTORS
330
47
102
}
330
47
100
AcDbScale
 70
     0
300
4:1
140
4.0
141
1.0
290
     0
  0
SCALE
  5
56
102
{ACAD_REACTORS
330
47
102
}
330
47
100
AcDbScale
 70
     0
300
8:1
140
8.0
141
1.0
290
     0
  0
SCALE
  5
57
102
{ACAD_REACTORS
330
47
102
}
330
47
100
AcDbScale
 70
     0
300
10:1
140
10.0
141
1.0
290
     0
  0
SCALE
  5
58
102
{ACAD_REACTORS
330
47
102
}
330
47
100
AcDbScale
 70
     0
300
100:1
140
100.0
141
1.0
290
     0
  0
SCALE
  5
59
102
{ACAD_REACTORS
330
47
102
}
330
47
100
AcDbScale
 70
     0
300
1/128" = 1'-0"
140
0.0078125
141
12.0
290
     0
  0
SCALE
  5
5A
102
{ACAD_REACTORS
330
47
102
}
330
47
100
AcDbScale
 70
     0
300
1/64" = 1'-0"
140
0.015625
141
12.0
290
     0
  0
SCALE
  5
5B
102
{ACAD_REACTORS
330
47
102
}
330
47
100
AcDbScale
 70
     0
300
1/32" = 1'-0"
140
0.03125
141
12.0
290
     0
  0
SCALE
  5
5C
102
{ACAD_REACTORS
330
47
102
}
330
47
100
AcDbScale
 70
     0
300
1/16" = 1'-0"
140
0.0625
141
12.0
290
     0
  0
SCALE
  5
5D
102
{ACAD_REACTORS
330
47
102
}
330
47
100
AcDbScale
 70
     0
300
3/32" = 1'-0"
140
0.09375
141
12.0
290
     0
  0
SCALE
  5
5E
102
{ACAD_REACTORS
330
47
102
}
330
47
100
AcDbScale
 70
     0
300
1/8" = 1'-0"
140
0.125
141
12.0
290
     0
  0
SCALE
  5
5F
102
{ACAD_REACTORS
330
47
102
}
330
47
100
AcDbScale
 70
     0
300
3/16" = 1'-0"
140
0.1875
141
12.0
290
     0
  0
SCALE
  5
60
102
{ACAD_REACTORS
330
47
102
}
330
47
100
AcDbScale
 70
     0
300
1/4" = 1'-0"
140
0.25
141
12.0
290
     0
  0
SCALE
  5
61
102
{ACAD_REACTORS
330
47
102
}
330
47
100
AcDbScale
 70
     0
300
3/8" = 1'-0"
140
0.375
141
12.0
290
     0
  0
SCALE
  5
62
102
{ACAD_REACTORS
330
47
102
}
330
47
100
AcDbScale
 70
     0
300
1/2" = 1'-0"
140
0.5
141
12.0
290
     0
  0
SCALE
  5
63
102
{ACAD_REACTORS
330
47
102
}
330
47
100
AcDbScale
 70
     0
300
3/4" = 1'-0"
140
0.75
141
12.0
290
     0
  0
SCALE
  5
64
102
{ACAD_REACTORS
330
47
102
}
330
47
100
AcDbScale
 70
     0
300
1" = 1'-0"
140
1.0
141
12.0
290
     0
  0
SCALE
  5
65
102
{ACAD_REACTORS
330
47
102
}
330
47
100
AcDbScale
 70
     0
300
1-1/2" = 1'-0"
140
1.5
141
12.0
290
     0
  0
SCALE
  5
66
102
{ACAD_REACTORS
330
47
102
}
330
47
100
AcDbScale
 70
     0
300
3" = 1'-0"
140
3.0
141
12.0
290
     0
  0
SCALE
  5
67
102
{ACAD_REACTORS
330
47
102
}
330
47
100
AcDbScale
 70
     0
300
6" = 1'-0"
140
6.0
141
12.0
290
     0
  0
SCALE
  5
68
102
{ACAD_REACTORS
330
47
102
}
330
47
100
AcDbScale
 70
     0
300
1'-0" = 1'-0"
140
12.0
141
12.0
290
     0
  0
ENDSEC
  0
EOF
